<?xml version="1.0" encoding="utf-8"?>
<!-- Generator: Adobe Illustrator 16.0.0, SVG Export Plug-In . SVG Version: 6.00 Build 0)  -->
<!DOCTYPE svg PUBLIC "-//W3C//DTD SVG 1.1//EN" "http://www.w3.org/Graphics/SVG/1.1/DTD/svg11.dtd">
<svg version="1.1" id="Ñëîé_1" xmlns="http://www.w3.org/2000/svg" xmlns:xlink="http://www.w3.org/1999/xlink" x="0px" y="0px"
	 width="345px" height="266px" viewBox="0 0 345 266" enable-background="new 0 0 345 266" xml:space="preserve">
<g>
	<g>
		<path fill="#EFEFEF" d="M183.223,246.514L67.256,179.561c-3.281-1.894-2.869-5.202,0.919-7.389l78.964-45.575
			c3.788-2.188,9.519-2.425,12.799-0.531l115.968,66.953c3.279,1.895,2.869,5.203-0.92,7.39l-78.965,45.575
			C192.234,248.171,186.504,248.408,183.223,246.514z"/>
		<path fill="#173D7A" d="M303.066,74.413L187.1,7.459c-1.346-0.777-2.715-0.897-3.93-0.481l0.008-0.012l-0.211,0.079
			c-0.018,0.007-0.033,0.013-0.051,0.02l-4.191,1.604l3.762,1.842c-0.018,0.069-0.039,0.134-0.055,0.204l-18.889,85.982
			c-0.945,4.303,0.947,9.326,4.228,11.221l113.179,65.343l-0.404,4.796l4.58-1.774c1.539-0.721,2.771-2.348,3.281-4.666
			l18.889-85.981C308.24,81.33,306.348,76.307,303.066,74.413z"/>
		<path fill="#396CAA" d="M303.066,74.413L187.1,7.459c-1.346-0.777-2.715-0.897-3.93-0.481l0.008-0.012l-0.211,0.079
			c-0.018,0.007-0.033,0.013-0.051,0.02l-4.191,1.604l3.762,1.842c-0.018,0.069-0.039,0.134-0.055,0.204l-12.449,56.668
			l56.742,44.206l80.006-32.554C305.961,77.041,304.684,75.346,303.066,74.413z"/>
		<path fill="#274F89" d="M298.693,87.63l8.828-3.759c0.162-3.419-1.254-6.95-3.576-8.84l-13.973,5.878L298.693,87.63z"/>
		<path fill="#D4ECFF" d="M276.516,177.601L160.55,110.646c-3.281-1.894-5.174-6.917-4.229-11.22l18.89-85.982
			c0.945-4.303,4.371-6.256,7.65-4.361l115.967,66.953c3.281,1.894,5.174,6.918,4.229,11.221l-18.889,85.981
			C283.223,177.542,279.797,179.494,276.516,177.601z"/>
		<path fill="#FFFFFF" d="M274.002,171.205l-109.064-62.938c-3.002-1.733-4.733-6.331-3.869-10.269l17.285-78.681
			c0.865-3.937,4-5.724,7.002-3.991L294.42,78.265c3.002,1.733,4.734,6.33,3.869,10.268l-17.285,78.682
			C280.139,171.15,277.004,172.938,274.002,171.205z"/>
		<path fill="#173D7A" d="M274.002,171.205l-109.064-62.938c-3.002-1.733-4.733-6.331-3.869-10.269l17.285-78.681
			c0.865-3.937,4-5.724,7.002-3.991L294.42,78.265c3.002,1.733,4.734,6.33,3.869,10.268l-17.285,78.682
			C280.139,171.15,277.004,172.938,274.002,171.205z"/>
		<path fill="#173D7A" d="M278.117,180.517l-15.852-2.094l-102.327-59.078c-3.28-1.895-9.011-1.656-12.799,0.53l-72.508,41.848
			l-9.585-1.266v5.438l0.01,0.001c-0.063,1.257,0.653,2.466,2.201,3.359l115.966,66.954c3.281,1.894,9.012,1.656,12.799-0.531
			l78.965-45.574c2.131-1.23,3.193-2.816,3.131-4.305l0,0V180.517z"/>
		<path fill="#396CAA" d="M201.232,143.186l-7.27-4.197h-79.928l-39.404,22.734l-9.585-1.266v5.438l0.01,0.001
			c-0.063,1.257,0.653,2.466,2.201,3.359l115.966,66.954c1.734,1,4.152,1.4,6.605,1.237L201.232,143.186z"/>
		<path fill="#5793CE" d="M69.3,161.019l-4.254-0.562v5.438l0.01,0.001c-0.063,1.257,0.653,2.466,2.201,3.359l2.043,1.181V161.019z"
			/>
		<path fill="#274F89" d="M184.391,236.752c3.109,1.18,7.555,0.923,10.875-0.675v-12.131h-10.875V236.752z"/>
		<path fill="#D4ECFF" d="M183.223,230.777L67.256,163.824c-3.281-1.895-2.869-5.202,0.919-7.39l78.964-45.575
			c3.788-2.187,9.519-2.424,12.799-0.53l115.968,66.953c3.279,1.895,2.869,5.202-0.92,7.39l-78.965,45.575
			C192.234,232.434,186.504,232.671,183.223,230.777z"/>
		<path fill="#FFFFFF" d="M274.986,182.686l-78.965,45.575c-3.787,2.187-9.518,2.424-12.799,0.53L67.256,161.838
			c-1.076-0.621-1.747-1.396-2.04-2.231c-0.513,1.552,0.141,3.121,2.04,4.218l115.966,66.953c3.281,1.895,9.012,1.656,12.799-0.53
			l78.965-45.575c2.547-1.47,3.559-3.445,2.959-5.159C277.572,180.644,276.582,181.764,274.986,182.686z"/>
		<g>
			<path fill="#B9DFF9" d="M116.578,141.658l-5.247-3.029c-0.421-0.243-0.368-0.668,0.118-0.948l6.193-3.576
				c0.486-0.281,1.223-0.312,1.644-0.068l5.247,3.029c0.421,0.243,0.368,0.668-0.118,0.949l-6.193,3.575
				C117.735,141.871,117,141.901,116.578,141.658z"/>
			<path fill="#B9DFF9" d="M124.682,146.337l-5.247-3.029c-0.422-0.243-0.369-0.668,0.118-0.949l6.192-3.575
				c0.487-0.281,1.223-0.312,1.645-0.068l5.246,3.029c0.422,0.243,0.369,0.668-0.117,0.949l-6.193,3.575
				C125.839,146.55,125.103,146.58,124.682,146.337z"/>
			<path fill="#B9DFF9" d="M132.784,151.015l-5.247-3.029c-0.421-0.243-0.368-0.668,0.118-0.948l6.193-3.576
				c0.486-0.281,1.223-0.312,1.644-0.068l5.247,3.03c0.421,0.242,0.368,0.667-0.118,0.948l-6.193,3.576
				C133.941,151.228,133.206,151.259,132.784,151.015z"/>
			<path fill="#B9DFF9" d="M143.991,147.151l-5.247-3.029c-0.421-0.243-0.368-0.668,0.118-0.948l5.199-3.002
				c0.486-0.281,1.222-0.312,1.644-0.068l5.247,3.029c0.421,0.243,0.368,0.668-0.118,0.949l-5.199,3.001
				C145.148,147.364,144.412,147.395,143.991,147.151z"/>
			<path fill="#B9DFF9" d="M152.094,151.83l-5.247-3.029c-0.421-0.243-0.368-0.669,0.118-0.949l5.199-3.002
				c0.486-0.28,1.223-0.312,1.644-0.068l5.247,3.03c0.421,0.243,0.368,0.668-0.118,0.948l-5.199,3.002
				C153.251,152.043,152.516,152.073,152.094,151.83z"/>
			<path fill="#B9DFF9" d="M160.197,156.508l-5.247-3.029c-0.422-0.243-0.368-0.668,0.118-0.949l5.198-3.001
				c0.487-0.281,1.223-0.312,1.644-0.068l5.247,3.029c0.422,0.243,0.369,0.668-0.117,0.949l-5.199,3.001
				C161.354,156.721,160.618,156.751,160.197,156.508z"/>
			<path fill="#B9DFF9" d="M168.3,161.187l-5.247-3.029c-0.421-0.243-0.368-0.668,0.118-0.949l5.199-3.002
				c0.486-0.28,1.223-0.311,1.644-0.067l5.248,3.029c0.42,0.243,0.367,0.668-0.119,0.948l-5.199,3.002
				C169.457,161.399,168.722,161.43,168.3,161.187z"/>
			<path fill="#B9DFF9" d="M176.404,165.864l-5.248-3.028c-0.422-0.244-0.368-0.669,0.118-0.95l5.198-3.001
				c0.486-0.281,1.223-0.312,1.645-0.068l5.246,3.029c0.422,0.243,0.369,0.668-0.117,0.949l-5.199,3.002
				C177.561,166.077,176.824,166.107,176.404,165.864z"/>
			<path fill="#B9DFF9" d="M184.506,170.543l-5.246-3.029c-0.422-0.243-0.369-0.668,0.117-0.949l5.199-3.002
				c0.486-0.28,1.223-0.311,1.645-0.067l5.246,3.029c0.422,0.243,0.369,0.668-0.117,0.948l-5.199,3.002
				C185.664,170.756,184.928,170.786,184.506,170.543z"/>
			<path fill="#B9DFF9" d="M192.609,175.221l-5.246-3.029c-0.422-0.243-0.369-0.668,0.117-0.948l5.199-3.002
				c0.486-0.281,1.223-0.312,1.643-0.068l5.248,3.029c0.422,0.243,0.369,0.668-0.119,0.949l-5.197,3.002
				C193.768,175.434,193.031,175.464,192.609,175.221z"/>
			<path fill="#B9DFF9" d="M200.713,179.899l-5.248-3.029c-0.42-0.243-0.367-0.668,0.119-0.949l5.199-3.002
				c0.486-0.28,1.221-0.311,1.643-0.067l5.248,3.029c0.42,0.243,0.367,0.668-0.119,0.949l-5.199,3.001
				C201.869,180.112,201.133,180.143,200.713,179.899z"/>
			<path fill="#B9DFF9" d="M208.814,184.577l-5.246-3.028c-0.422-0.244-0.369-0.669,0.117-0.949l5.199-3.002
				c0.486-0.281,1.223-0.312,1.645-0.068l5.246,3.029c0.422,0.243,0.369,0.668-0.117,0.949l-5.199,3.002
				C209.973,184.79,209.236,184.821,208.814,184.577z"/>
			<path fill="#B9DFF9" d="M216.918,189.256l-5.246-3.029c-0.422-0.243-0.369-0.668,0.117-0.949l5.199-3.001
				c0.486-0.281,1.223-0.312,1.645-0.068l5.246,3.029c0.422,0.243,0.369,0.668-0.117,0.949l-5.199,3.001
				C218.076,189.469,217.34,189.499,216.918,189.256z"/>
			<path fill="#B9DFF9" d="M155.931,144.937l-5.247-3.029c-0.422-0.243-0.369-0.668,0.118-0.949l5.198-3.001
				c0.486-0.281,1.223-0.312,1.644-0.068l5.247,3.029c0.422,0.243,0.369,0.668-0.118,0.949l-5.198,3.001
				C157.088,145.149,156.352,145.18,155.931,144.937z"/>
			<path fill="#B9DFF9" d="M147.706,140.188l-5.247-3.029c-0.421-0.243-0.368-0.668,0.118-0.949l5.199-3.001
				c0.486-0.281,1.223-0.312,1.644-0.068l5.247,3.029c0.421,0.243,0.368,0.668-0.118,0.949l-5.198,3.001
				C148.863,140.401,148.128,140.432,147.706,140.188z"/>
			<path fill="#B9DFF9" d="M139.469,135.433l-11.301-6.524c-0.421-0.243-0.368-0.668,0.118-0.949l5.199-3.001
				c0.486-0.281,1.223-0.312,1.644-0.068l11.301,6.524c0.421,0.243,0.368,0.668-0.118,0.949l-5.199,3.001
				C140.626,135.646,139.891,135.676,139.469,135.433z"/>
			<path fill="#B9DFF9" d="M145.227,129.649l-9.171-5.295c-0.421-0.243-0.368-0.668,0.118-0.949l5.199-3.002
				c0.486-0.28,1.223-0.311,1.644-0.067l9.171,5.295c0.421,0.243,0.368,0.668-0.118,0.948l-5.199,3.002
				C146.384,129.862,145.648,129.893,145.227,129.649z"/>
			<path fill="#B9DFF9" d="M164.033,149.615l-5.247-3.029c-0.421-0.243-0.368-0.669,0.118-0.949l5.199-3.002
				c0.486-0.28,1.222-0.312,1.644-0.067l5.247,3.028c0.421,0.244,0.368,0.669-0.118,0.95l-5.199,3.001
				C165.19,149.827,164.454,149.858,164.033,149.615z"/>
			<path fill="#B9DFF9" d="M172.137,154.293l-5.247-3.029c-0.422-0.243-0.369-0.668,0.117-0.949l5.199-3.001
				c0.486-0.281,1.223-0.312,1.644-0.068l5.248,3.029c0.422,0.243,0.369,0.668-0.119,0.949l-5.197,3.001
				C173.294,154.506,172.558,154.536,172.137,154.293z"/>
			<path fill="#B9DFF9" d="M180.24,158.972l-5.248-3.029c-0.42-0.243-0.367-0.668,0.119-0.949l5.199-3.002
				c0.486-0.28,1.221-0.312,1.643-0.067l5.248,3.029c0.42,0.243,0.367,0.668-0.119,0.948l-5.199,3.002
				C181.396,159.185,180.66,159.215,180.24,158.972z"/>
			<path fill="#B9DFF9" d="M188.344,163.649l-5.248-3.029c-0.422-0.243-0.369-0.668,0.117-0.948l5.199-3.002
				c0.486-0.281,1.223-0.312,1.645-0.068l5.246,3.029c0.422,0.243,0.369,0.668-0.117,0.949l-5.199,3.001
				C189.5,163.862,188.764,163.893,188.344,163.649z"/>
			<path fill="#B9DFF9" d="M196.445,168.328l-5.246-3.029c-0.422-0.243-0.369-0.668,0.117-0.949l5.199-3.002
				c0.486-0.28,1.223-0.312,1.645-0.067l5.246,3.029c0.422,0.243,0.369,0.668-0.117,0.949l-5.199,3.001
				C197.604,168.541,196.867,168.571,196.445,168.328z"/>
			<path fill="#B9DFF9" d="M204.549,173.006l-5.248-3.029c-0.42-0.243-0.367-0.668,0.119-0.948l5.199-3.002
				c0.486-0.281,1.223-0.312,1.643-0.068l5.248,3.029c0.42,0.243,0.367,0.668-0.119,0.949l-5.199,3.002
				C205.705,173.219,204.971,173.249,204.549,173.006z"/>
			<path fill="#B9DFF9" d="M212.652,177.685l-5.248-3.029c-0.422-0.243-0.367-0.668,0.119-0.949l5.197-3.002
				c0.488-0.28,1.223-0.311,1.645-0.067l5.246,3.029c0.422,0.243,0.369,0.668-0.117,0.948l-5.199,3.002
				C213.809,177.897,213.072,177.928,212.652,177.685z"/>
			<path fill="#B9DFF9" d="M220.754,182.362l-5.246-3.029c-0.422-0.243-0.369-0.668,0.117-0.948l5.199-3.002
				c0.486-0.281,1.223-0.312,1.645-0.068l5.246,3.029c0.422,0.244,0.369,0.668-0.117,0.949l-5.199,3.002
				C221.912,182.575,221.176,182.605,220.754,182.362z"/>
			<path fill="#B9DFF9" d="M228.857,187.041l-5.246-3.029c-0.422-0.243-0.369-0.668,0.117-0.949l5.199-3.002
				c0.486-0.28,1.223-0.311,1.643-0.067l5.248,3.029c0.422,0.243,0.369,0.668-0.117,0.949l-5.199,3.001
				C230.016,187.254,229.279,187.284,228.857,187.041z"/>
			<path fill="#B9DFF9" d="M243.264,195.357l-11.449-6.609c-0.422-0.243-0.369-0.668,0.117-0.949l5.199-3.001
				c0.486-0.281,1.223-0.312,1.645-0.068l11.447,6.61c0.422,0.242,0.369,0.668-0.117,0.948l-5.199,3.002
				C244.42,195.57,243.684,195.602,243.264,195.357z"/>
			<path fill="#B9DFF9" d="M259.039,186.25l-9.664-5.579c-0.42-0.243-0.367-0.668,0.119-0.949l5.197-3.001
				c0.488-0.281,1.223-0.312,1.645-0.068l9.662,5.579c0.422,0.243,0.369,0.668-0.117,0.948l-5.199,3.002
				C260.195,186.463,259.459,186.493,259.039,186.25z"/>
			<path fill="#B9DFF9" d="M178.225,148.699l-5.248-3.028c-0.422-0.244-0.369-0.669,0.118-0.949l5.198-3.002
				c0.488-0.281,1.223-0.312,1.645-0.068l5.246,3.029c0.422,0.243,0.369,0.668-0.117,0.949l-5.199,3.002
				C179.381,148.912,178.645,148.942,178.225,148.699z"/>
			<path fill="#B9DFF9" d="M169.919,143.905l-5.247-3.029c-0.421-0.244-0.368-0.668,0.118-0.949l5.199-3.002
				c0.486-0.28,1.222-0.312,1.644-0.068l5.248,3.029c0.42,0.244,0.367,0.669-0.119,0.95l-5.199,3.001
				C171.076,144.118,170.34,144.148,169.919,143.905z"/>
			<path fill="#B9DFF9" d="M161.614,139.11l-5.247-3.029c-0.421-0.243-0.368-0.668,0.118-0.949l5.199-3.001
				c0.486-0.281,1.222-0.312,1.644-0.068l5.247,3.029c0.421,0.243,0.368,0.668-0.118,0.949l-5.199,3.001
				C162.771,139.323,162.035,139.354,161.614,139.11z"/>
			<path fill="#B9DFF9" d="M153.31,134.315l-5.247-3.029c-0.421-0.243-0.368-0.668,0.118-0.948l5.199-3.002
				c0.486-0.281,1.222-0.312,1.644-0.068l5.247,3.029c0.421,0.243,0.368,0.668-0.118,0.949l-5.199,3.001
				C154.467,134.528,153.731,134.559,153.31,134.315z"/>
			<path fill="#B9DFF9" d="M186.326,153.378l-5.246-3.029c-0.422-0.243-0.369-0.668,0.117-0.949l5.199-3.002
				c0.486-0.28,1.223-0.311,1.645-0.067l5.246,3.029c0.422,0.243,0.369,0.668-0.117,0.949l-5.199,3.001
				C187.484,153.591,186.748,153.621,186.326,153.378z"/>
			<path fill="#B9DFF9" d="M194.43,158.056l-5.246-3.029c-0.422-0.243-0.369-0.668,0.117-0.948l5.199-3.002
				c0.486-0.281,1.223-0.312,1.643-0.068l5.248,3.029c0.422,0.243,0.369,0.668-0.119,0.949l-5.197,3.002
				C195.588,158.269,194.852,158.3,194.43,158.056z"/>
			<path fill="#B9DFF9" d="M202.533,162.734l-5.248-3.029c-0.42-0.243-0.367-0.668,0.119-0.949l5.199-3.001
				c0.486-0.281,1.221-0.312,1.643-0.068l5.248,3.029c0.42,0.243,0.367,0.668-0.119,0.949l-5.199,3.001
				C203.689,162.947,202.955,162.978,202.533,162.734z"/>
			<path fill="#B9DFF9" d="M210.637,167.413l-5.248-3.029c-0.422-0.244-0.369-0.669,0.117-0.949l5.199-3.002
				c0.486-0.281,1.223-0.312,1.645-0.068l5.246,3.029c0.422,0.243,0.369,0.669-0.117,0.949l-5.199,3.002
				C211.793,167.625,211.057,167.656,210.637,167.413z"/>
			<path fill="#B9DFF9" d="M218.738,172.091l-5.246-3.029c-0.422-0.243-0.369-0.668,0.117-0.949l5.199-3.001
				c0.486-0.281,1.223-0.312,1.645-0.068l5.246,3.029c0.422,0.243,0.369,0.668-0.117,0.949l-5.199,3.001
				C219.896,172.304,219.16,172.334,218.738,172.091z"/>
			<path fill="#B9DFF9" d="M226.842,176.77l-5.248-3.03c-0.42-0.243-0.367-0.668,0.119-0.948l5.199-3.002
				c0.486-0.28,1.223-0.312,1.643-0.068l5.248,3.029c0.42,0.243,0.367,0.669-0.119,0.949l-5.197,3.002
				C227.998,176.981,227.264,177.013,226.842,176.77z"/>
			<path fill="#B9DFF9" d="M234.945,181.447l-5.248-3.029c-0.422-0.243-0.367-0.668,0.119-0.949l5.197-3.001
				c0.488-0.281,1.223-0.312,1.645-0.068l5.248,3.029c0.42,0.243,0.367,0.668-0.119,0.949l-5.199,3.002
				C236.102,181.66,235.365,181.69,234.945,181.447z"/>
			<path fill="#B9DFF9" d="M243.047,186.126l-5.246-3.03c-0.422-0.243-0.369-0.668,0.117-0.948l5.199-3.002
				c0.486-0.28,1.223-0.312,1.645-0.068l5.246,3.029c0.422,0.244,0.369,0.669-0.117,0.949l-5.199,3.002
				C244.205,186.338,243.469,186.369,243.047,186.126z"/>
			<path fill="#B9DFF9" d="M251.15,190.804l-5.246-3.029c-0.422-0.243-0.369-0.668,0.117-0.949l5.199-3.001
				c0.486-0.281,1.223-0.312,1.643-0.068l5.248,3.029c0.422,0.243,0.369,0.668-0.117,0.949l-5.199,3.001
				C252.309,191.017,251.572,191.047,251.15,190.804z"/>
			<path fill="#B9DFF9" d="M173.957,137.129l-5.247-3.03c-0.422-0.243-0.369-0.668,0.118-0.948l5.199-3.002
				c0.486-0.281,1.223-0.312,1.643-0.068l5.248,3.029c0.422,0.243,0.369,0.668-0.119,0.949l-5.197,3.002
				C175.115,137.341,174.379,137.371,173.957,137.129z"/>
			<path fill="#B9DFF9" d="M165.894,132.474l-5.246-3.03c-0.422-0.243-0.369-0.668,0.117-0.948l5.199-3.002
				c0.486-0.28,1.223-0.312,1.644-0.067l5.247,3.028c0.421,0.244,0.368,0.669-0.118,0.949l-5.198,3.002
				C167.051,132.686,166.315,132.717,165.894,132.474z"/>
			<path fill="#B9DFF9" d="M157.831,127.818l-5.247-3.029c-0.421-0.243-0.368-0.668,0.118-0.949l5.199-3.002
				c0.486-0.28,1.223-0.311,1.644-0.067l5.247,3.029c0.421,0.243,0.368,0.668-0.118,0.948l-5.199,3.002
				C158.988,128.031,158.253,128.062,157.831,127.818z"/>
			<path fill="#B9DFF9" d="M149.769,123.163l-5.247-3.029c-0.421-0.243-0.368-0.668,0.118-0.949l5.199-3.001
				c0.486-0.281,1.222-0.312,1.644-0.068l5.247,3.029c0.421,0.243,0.368,0.668-0.118,0.949l-5.199,3.001
				C150.926,123.376,150.19,123.406,149.769,123.163z"/>
			<path fill="#B9DFF9" d="M158.06,118.377l-5.247-3.03c-0.421-0.243-0.368-0.668,0.118-0.948l1.719-0.992
				c0.486-0.281,1.222-0.312,1.644-0.068l5.247,3.029c0.421,0.243,0.368,0.668-0.118,0.949l-1.719,0.992
				C159.217,118.59,158.48,118.62,158.06,118.377z"/>
			<path fill="#B9DFF9" d="M168.581,124.451l-5.247-3.029c-0.421-0.243-0.368-0.668,0.118-0.949l1.719-0.992
				c0.486-0.28,1.223-0.312,1.644-0.067l5.247,3.029c0.421,0.243,0.368,0.668-0.118,0.948l-1.719,0.992
				C169.738,124.664,169.003,124.694,168.581,124.451z"/>
			<path fill="#B9DFF9" d="M176.611,129.087l-5.248-3.029c-0.421-0.243-0.368-0.668,0.118-0.949l1.719-0.992
				c0.487-0.281,1.224-0.312,1.644-0.068l5.248,3.029c0.42,0.243,0.367,0.669-0.119,0.949l-1.719,0.992
				C177.768,129.3,177.031,129.33,176.611,129.087z"/>
			<path fill="#B9DFF9" d="M184.641,133.723l-5.248-3.029c-0.422-0.243-0.367-0.668,0.119-0.949l1.719-0.992
				c0.486-0.281,1.221-0.312,1.643-0.068l5.248,3.029c0.42,0.243,0.367,0.669-0.119,0.949l-1.719,0.992
				C185.797,133.936,185.061,133.966,184.641,133.723z"/>
			<path fill="#B9DFF9" d="M192.67,138.358l-5.248-3.029c-0.422-0.244-0.369-0.669,0.117-0.949l1.719-0.992
				c0.488-0.281,1.223-0.312,1.645-0.068l5.246,3.029c0.422,0.243,0.369,0.668-0.117,0.949l-1.719,0.992
				C193.826,138.57,193.09,138.602,192.67,138.358z"/>
			<path fill="#B9DFF9" d="M237.494,164.238l-5.248-3.03c-0.42-0.242-0.367-0.668,0.119-0.948l1.719-0.992
				c0.486-0.281,1.223-0.312,1.643-0.068l5.248,3.029c0.422,0.243,0.369,0.668-0.119,0.949l-1.717,0.992
				C238.65,164.45,237.916,164.481,237.494,164.238z"/>
			<path fill="#B9DFF9" d="M245.523,168.873l-5.248-3.029c-0.42-0.243-0.367-0.668,0.119-0.948l1.719-0.993
				c0.486-0.28,1.223-0.311,1.643-0.067l5.248,3.029c0.42,0.243,0.367,0.668-0.119,0.949l-1.719,0.992
				C246.68,169.086,245.945,169.116,245.523,168.873z"/>
			<path fill="#B9DFF9" d="M253.553,173.509l-5.248-3.029c-0.42-0.243-0.367-0.668,0.119-0.949l1.719-0.992
				c0.486-0.28,1.221-0.312,1.643-0.067l5.248,3.029c0.42,0.243,0.367,0.668-0.119,0.948l-1.719,0.992
				C254.709,173.722,253.973,173.753,253.553,173.509z"/>
			<path fill="#B9DFF9" d="M261.582,178.145l-5.248-3.029c-0.422-0.243-0.367-0.668,0.119-0.949l1.719-0.992
				c0.486-0.28,1.221-0.312,1.643-0.068l5.246,3.03c0.422,0.243,0.369,0.668-0.117,0.948l-1.719,0.992
				C262.738,178.357,262.002,178.388,261.582,178.145z"/>
			<path fill="#B9DFF9" d="M182.061,141.807l-5.248-3.029c-0.42-0.243-0.367-0.668,0.119-0.949l5.199-3.002
				c0.486-0.28,1.221-0.311,1.643-0.067l5.248,3.029c0.42,0.243,0.367,0.668-0.119,0.948l-5.199,3.002
				C183.217,142.02,182.48,142.05,182.061,141.807z"/>
			<path fill="#B9DFF9" d="M190.164,146.484l-5.248-3.029c-0.422-0.243-0.369-0.668,0.117-0.948l5.199-3.002
				c0.486-0.281,1.223-0.312,1.645-0.068l5.246,3.029c0.422,0.243,0.369,0.668-0.117,0.949l-5.199,3.002
				C191.32,146.697,190.584,146.728,190.164,146.484z"/>
			<path fill="#B9DFF9" d="M198.266,151.163l-5.246-3.029c-0.422-0.243-0.369-0.668,0.117-0.949l5.199-3.002
				c0.486-0.28,1.223-0.311,1.645-0.067l5.246,3.029c0.422,0.243,0.369,0.668-0.117,0.949l-5.199,3.001
				C199.424,151.376,198.688,151.406,198.266,151.163z"/>
			<path fill="#B9DFF9" d="M206.369,155.842l-5.248-3.03c-0.42-0.243-0.367-0.668,0.119-0.948l5.199-3.002
				c0.486-0.281,1.223-0.312,1.643-0.068l5.248,3.029c0.42,0.243,0.367,0.668-0.119,0.949l-5.197,3.002
				C207.525,156.054,206.791,156.084,206.369,155.842z"/>
			<path fill="#B9DFF9" d="M214.473,160.52l-5.248-3.029c-0.42-0.243-0.367-0.668,0.119-0.949l5.199-3.002
				c0.486-0.28,1.221-0.311,1.643-0.067l5.248,3.029c0.42,0.243,0.367,0.668-0.119,0.949l-5.199,3.001
				C215.629,160.732,214.893,160.763,214.473,160.52z"/>
			<path fill="#B9DFF9" d="M222.574,165.197l-5.246-3.029c-0.422-0.243-0.369-0.668,0.117-0.948l5.199-3.002
				c0.486-0.281,1.223-0.312,1.645-0.068l5.246,3.029c0.422,0.243,0.369,0.668-0.117,0.949l-5.199,3.002
				C223.732,165.41,222.996,165.441,222.574,165.197z"/>
			<path fill="#B9DFF9" d="M230.678,169.876l-5.246-3.029c-0.422-0.243-0.369-0.668,0.117-0.949l5.199-3.001
				c0.486-0.281,1.223-0.312,1.643-0.068l5.248,3.029c0.422,0.243,0.369,0.668-0.117,0.948l-5.199,3.002
				C231.836,170.089,231.1,170.119,230.678,169.876z"/>
			<path fill="#B9DFF9" d="M238.781,174.555l-5.248-3.029c-0.42-0.244-0.367-0.669,0.119-0.949l5.199-3.002
				c0.486-0.281,1.221-0.312,1.643-0.068l5.248,3.029c0.42,0.244,0.367,0.669-0.119,0.949l-5.199,3.002
				C239.938,174.767,239.203,174.798,238.781,174.555z"/>
			<path fill="#B9DFF9" d="M246.885,179.232l-5.248-3.029c-0.422-0.243-0.369-0.668,0.119-0.948l5.197-3.002
				c0.486-0.281,1.223-0.312,1.645-0.068l5.246,3.029c0.422,0.243,0.369,0.668-0.117,0.949l-5.199,3.001
				C248.041,179.445,247.305,179.476,246.885,179.232z"/>
			<path fill="#B9DFF9" d="M135.733,142.384l-15.453-8.921c-0.421-0.244-0.368-0.669,0.118-0.949l5.199-3.002
				c0.486-0.281,1.223-0.312,1.644-0.068l15.453,8.922c0.421,0.243,0.368,0.668-0.118,0.949l-5.199,3.002
				C136.891,142.597,136.155,142.627,135.733,142.384z"/>
			<path fill="#B9DFF9" d="M235.281,199.857l-15.453-8.922c-0.422-0.243-0.369-0.668,0.117-0.948l5.199-3.002
				c0.486-0.281,1.223-0.312,1.645-0.068l15.453,8.922c0.42,0.243,0.367,0.668-0.119,0.949l-5.199,3.001
				C236.438,200.07,235.703,200.101,235.281,199.857z"/>
			<path fill="#B9DFF9" d="M202.877,191.482l-5.248-3.029c-0.422-0.243-0.369-0.668,0.119-0.949l6.193-3.575
				c0.486-0.281,1.221-0.312,1.643-0.068l5.248,3.029c0.42,0.243,0.367,0.668-0.119,0.949l-6.193,3.575
				C204.033,191.695,203.297,191.726,202.877,191.482z"/>
			<path fill="#B9DFF9" d="M144.031,157.509l-8.391-4.845c-0.422-0.243-0.369-0.668,0.118-0.949l6.192-3.575
				c0.487-0.281,1.223-0.312,1.644-0.068l8.392,4.845c0.422,0.243,0.369,0.668-0.118,0.949l-6.193,3.575
				C145.188,157.722,144.453,157.752,144.031,157.509z"/>
			<path fill="#B9DFF9" d="M195.068,186.975l-8.391-4.845c-0.422-0.243-0.369-0.668,0.117-0.949l6.193-3.575
				c0.486-0.281,1.223-0.312,1.645-0.068l8.391,4.845c0.422,0.243,0.369,0.668-0.117,0.949l-6.193,3.575
				C196.227,187.188,195.49,187.218,195.068,186.975z"/>
			<path fill="#B9DFF9" d="M155.723,164.259l-8.392-4.845c-0.421-0.243-0.368-0.669,0.118-0.949l6.193-3.576
				c0.486-0.28,1.222-0.312,1.644-0.067l8.392,4.845c0.421,0.243,0.368,0.668-0.118,0.948l-6.193,3.576
				C156.88,164.471,156.144,164.502,155.723,164.259z"/>
			<path fill="#B9DFF9" d="M155.343,154.854l36.483,21.064c0.453,0.261,0.453,0.685,0,0.946l-6.314,3.646
				c-0.453,0.261-1.188,0.261-1.639,0l-36.485-21.064L155.343,154.854z"/>
			<path fill="#B9DFF9" d="M225.523,199.965l5.844,3.374c0.346,0.199,0.303,0.548-0.096,0.778l-2.535,1.462
				c-0.398,0.23-1.002,0.256-1.346,0.057l-5.846-3.375c-0.346-0.199-0.301-0.547,0.098-0.777l2.533-1.463
				C224.574,199.79,225.178,199.765,225.523,199.965z"/>
			<path fill="#B9DFF9" d="M217.352,195.247l5.846,3.375c0.346,0.199,0.303,0.547-0.098,0.777l-2.533,1.463
				c-0.398,0.23-1.002,0.255-1.348,0.056l-5.844-3.374c-0.346-0.199-0.303-0.548,0.098-0.778l2.533-1.462
				C216.404,195.073,217.008,195.048,217.352,195.247z"/>
			<path fill="#B9DFF9" d="M209.25,190.569l5.844,3.374c0.346,0.199,0.303,0.548-0.096,0.778l-2.533,1.463
				c-0.4,0.229-1.002,0.255-1.348,0.056l-5.846-3.375c-0.344-0.199-0.301-0.547,0.098-0.777l2.533-1.463
				C208.301,190.395,208.904,190.37,209.25,190.569z"/>
			<path fill="#B9DFF9" d="M221.828,192.664l5.844,3.374c0.346,0.2,0.303,0.548-0.098,0.778l-2.533,1.463
				c-0.398,0.229-1.002,0.255-1.346,0.056l-5.846-3.375c-0.346-0.199-0.303-0.547,0.098-0.777l2.533-1.463
				C220.879,192.489,221.482,192.465,221.828,192.664z"/>
		</g>
		<g>
			<polygon fill="#5793CE" points="267.379,83.917 214.678,53.49 215.355,50.064 268.057,80.491 			"/>
			<polygon fill="#5793CE" points="248.504,89.698 211.717,68.459 212.395,65.033 249.182,86.272 			"/>
			<polygon fill="#FFFFFF" points="245.023,79.35 213.197,60.975 213.875,57.549 245.701,75.924 			"/>
			<polygon fill="#FF2C9C" points="265.898,91.401 249.984,82.214 250.662,78.788 266.576,87.976 			"/>
		</g>
	</g>
	<polygon fill="#0A2D60" points="266.891,117.597 257.58,161.738 224.148,142.445 231.451,128.1 	"/>
	<path fill="#5793CE" d="M163.314,185.448L163.314,185.448c-9.299-5.368-9.299-18.791,0-24.159l46.744-26.987l47.521,27.437
		l-41.068,23.71C200.053,194.951,179.773,194.951,163.314,185.448z"/>
	<polygon fill="#D4ECFF" points="206.186,48.947 189.746,39.456 190.445,35.916 206.887,45.408 	"/>
	<polygon fill="#FFFFFF" points="204.723,56.452 188.283,46.96 188.982,43.42 205.424,52.912 	"/>
	<g>
		<path fill="#5793CE" d="M62.732,136.892l0.017,0.001c-7.525-4.18-12.222-13.335-12.263-26.439
			C50.405,84.509,68.583,52.792,91.01,39.75l16.185-9.411v-0.001l0,0l0,0l0.78,0.438l74.236,41.749l-18.808,12.224l-7.061,5.166
			l-9.721,10.155l-1.563,1.426l-10.346,15.672l-3.794,9.813l-2.813,7.802l-2.313,16.367l-0.159,1.413l0.835,6.901l2.387,8.544
			l3.367,5.789l4.898,5.814L62.732,136.892z"/>
		<path fill="#D4ECFF" d="M192.643,72.21l0.01,2.747l-49.265,28.604c0.835-1.914,2.412-3.501,4.024-5.093L192.643,72.21z"/>
		<polygon fill="#D4ECFF" points="266.881,114.85 192.643,72.21 147.697,99.188 142.071,105.738 133.621,120.584 128.313,135.424 
			126.584,147.023 126.367,158.605 133.618,175.172 143.046,180.681 152.741,181.184 164.369,176.358 256.285,122.286 		"/>
		<path fill="#396CAA" d="M62.75,136.893c-6.296-3.497-10.6-10.488-11.866-20.351l75.72,43.399l2.253,8.067l3.367,5.789l4.898,5.814
			l-74.39-42.721L62.75,136.893z"/>
		<g>
			<path fill="#173D7A" d="M51.17,118.435c-0.432-2.47-0.675-5.126-0.684-7.981c-0.006-1.91,0.098-3.854,0.285-5.817l75.482,43.264
				l-0.46,3.251l-0.159,1.413l0.835,6.901l0.709,2.535L51.17,118.435z"/>
			<path fill="#173D7A" d="M266.891,117.597l-0.01-2.747l-101.345,58.894c-21.116,12.279-38.359,2.396-38.436-22.031
				c-0.077-24.429,17.041-54.294,38.156-66.574l16.964-9.865l-0.01-2.747l-16.963,9.864c-22.426,13.043-40.604,44.759-40.522,70.703
				c0.081,25.943,18.393,36.439,40.819,23.397L266.891,117.597z"/>
		</g>
	</g>
	<g>
		<polygon fill="#5793CE" points="226.439,122.864 180.809,96.257 177.947,97.893 223.578,124.501 		"/>
		<polygon fill="#5793CE" points="225.168,107.682 193.316,89.107 190.453,90.744 222.307,109.317 		"/>
		<polygon fill="#5793CE" points="214.619,108.751 187.063,92.682 184.199,94.318 211.756,110.387 		"/>
		<polygon fill="#5793CE" points="232.693,119.29 218.916,111.256 216.053,112.893 229.83,120.927 		"/>
	</g>
	<g>
		<polygon fill="#EFEFEF" points="14.179,157.327 0.416,149.382 14.179,141.436 27.942,149.382 		"/>
		<polygon fill="#D3008D" points="27.942,140.367 14.179,148.313 14.179,132.422 27.942,124.476 		"/>
		<polygon fill="#FF2C9C" points="14.179,132.422 0.416,124.476 14.179,116.53 27.942,124.476 		"/>
		<polygon fill="#FF2C9C" points="14.179,148.313 0.416,140.367 0.416,124.476 14.179,132.422 		"/>
	</g>
	<g>
		<polygon fill="#EFEFEF" points="329.254,160.244 313.924,151.394 329.252,142.543 344.582,151.394 		"/>
		<polygon fill="#173D7A" points="344.584,141.354 329.254,150.205 329.254,132.504 344.584,123.652 		"/>
		<polygon fill="#D4ECFF" points="329.254,132.504 313.924,123.652 329.252,114.802 344.582,123.653 		"/>
		<polygon fill="#5793CE" points="329.254,150.205 313.924,141.354 313.924,123.652 329.254,132.504 		"/>
	</g>
	<g>
		<polygon fill="#EFEFEF" points="109.453,265.584 94.123,256.733 109.452,247.883 124.782,256.733 		"/>
		<polygon fill="#173D7A" points="124.783,246.693 109.453,255.544 109.453,237.843 124.783,228.992 		"/>
		<polygon fill="#D4ECFF" points="109.453,237.843 94.123,228.992 109.452,220.142 124.782,228.992 		"/>
		<polygon fill="#5793CE" points="109.453,255.544 94.123,246.693 94.123,228.992 109.453,237.843 		"/>
	</g>
	<g>
		<g>
			<path fill="#5793CE" d="M180.25,138.838c-9.098,5.252-23.848,5.252-32.944,0c-9.098-5.253-9.098-13.769-0.001-19.021
				s23.847-5.252,32.945,0C189.346,125.07,189.348,133.586,180.25,138.838z"/>
			<path fill="#D3008D" d="M187.072,122.41v-4.282h-1.234c-1.109-1.909-2.955-3.707-5.588-5.227c-9.099-5.253-23.849-5.253-32.945,0
				c-2.633,1.52-4.479,3.317-5.588,5.227h-1.233v4.247h0.002c-0.016,3.454,2.256,6.91,6.82,9.546c9.097,5.252,23.847,5.252,32.944,0
				C184.799,129.295,187.072,125.853,187.072,122.41z"/>
			<path fill="#FF2C9C" d="M180.25,127.638c-9.098,5.252-23.848,5.252-32.944,0c-9.098-5.252-9.098-13.768-0.001-19.021
				c9.097-5.252,23.847-5.252,32.945,0.001C189.346,113.87,189.348,122.386,180.25,127.638z"/>
			<path fill="#FFFFFF" d="M180.25,127.638c-9.098,5.253-23.848,5.253-32.944,0c-4.36-2.517-6.607-5.784-6.788-9.082
				c-0.196,3.583,2.05,7.203,6.788,9.938c9.097,5.253,23.847,5.253,32.944,0c4.736-2.734,6.984-6.354,6.787-9.938
				C186.855,121.854,184.609,125.121,180.25,127.638z"/>
		</g>
		<g>
			<path fill="#FFFFFF" d="M152.549,122.58c-0.392-0.226-0.614-0.534-0.613-0.857l0.023-8.763c0.001-0.668,0.941-1.21,2.1-1.209
				s2.093,0.544,2.093,1.213l-0.02,7.267l21.089-2.583c1.133-0.139,2.246,0.279,2.486,0.934c0.24,0.653-0.484,1.297-1.615,1.435
				l-23.625,2.893c-0.619,0.076-1.265-0.013-1.757-0.243C152.654,122.638,152.601,122.61,152.549,122.58z"/>
		</g>
	</g>
	<g>
		<path fill="#FF2C9C" d="M265.744,97.264c-0.416,0.909-1.469,1.232-2.35,0.724s-1.258-1.658-0.842-2.566s1.469-1.232,2.35-0.724
			S266.16,96.355,265.744,97.264z"/>
		<path fill="#FFFFFF" d="M271.373,100.514c-0.416,0.908-1.469,1.232-2.35,0.724s-1.258-1.657-0.842-2.565
			c0.416-0.909,1.469-1.233,2.35-0.725C271.414,98.456,271.789,99.605,271.373,100.514z"/>
		<path fill="#D4ECFF" d="M277.002,103.764c-0.416,0.909-1.467,1.232-2.35,0.724c-0.881-0.509-1.258-1.657-0.842-2.565
			c0.418-0.909,1.469-1.233,2.352-0.725C277.043,101.706,277.42,102.855,277.002,103.764z"/>
		<path fill="#FF2C9C" d="M282.633,107.015c-0.418,0.908-1.469,1.232-2.35,0.724c-0.883-0.509-1.26-1.658-0.842-2.566
			c0.416-0.909,1.469-1.232,2.35-0.724S283.049,106.105,282.633,107.015z"/>
	</g>
	<path fill="#173D7A" d="M107.975,30.776l-0.78-0.438l0,0v0.001L91.01,39.75c-5.313,3.09-10.381,7.236-15.031,12.096l27.715,16.002
		l34.639-19.999L107.975,30.776z"/>
	<g>
		<g>
			<g>
				<path fill="#FF2C9C" d="M137.587,31.259l-5.025-2.901l18.529-10.698c0.876-0.506,0.876-1.327,0-1.833l-18.93-10.929
					c-0.875-0.506-2.299-0.506-3.175,0l-18.529,10.698l-5.026-2.902l18.53-10.698c3.646-2.104,9.579-2.104,13.226,0l18.931,10.93
					c3.646,2.105,3.646,5.53,0,7.636L137.587,31.259z"/>
			</g>
			<g>
				<path fill="#D4ECFF" d="M145.696,32.536c0-2.687-1.634-5.808-3.648-6.971L108.475,6.182c-0.902-0.521-1.727-0.558-2.363-0.202
					l-0.002-0.001L66.023,29.272l38.765,29.21l39.492-22.921c0.121-0.056,0.239-0.12,0.349-0.203l0,0l0,0
					C145.289,34.858,145.696,33.879,145.696,32.536z"/>
				<path fill="#5793CE" d="M104.788,58.482l39.492-22.921c0.121-0.056,0.239-0.12,0.349-0.203l0,0l0,0
					c0.66-0.5,1.067-1.479,1.067-2.822c0-1.282-0.375-2.662-0.983-3.882L99.695,54.646L104.788,58.482z"/>
				<path fill="#5793CE" d="M102.263,58.379L68.69,38.995c-2.015-1.163-3.648-4.284-3.648-6.971l0,0
					c0-2.688,1.633-3.922,3.648-2.759l33.573,19.384c2.016,1.163,3.649,4.284,3.649,6.972l0,0
					C105.912,58.308,104.278,59.542,102.263,58.379z"/>
				<path fill="#FFFFFF" d="M102.667,48.465L69.094,29.082c-0.927-0.535-1.77-0.558-2.414-0.171
					c0.577-0.175,1.267-0.074,2.009,0.354l33.573,19.384c2.016,1.163,3.649,4.284,3.649,6.971v0.001
					c0,1.451-0.479,2.474-1.235,2.929c0.987-0.301,1.639-1.416,1.639-3.112v-0.001C106.315,52.75,104.683,49.629,102.667,48.465z"/>
			</g>
			<path fill="#FFFFFF" d="M97.234,51.842l-4.036-2.328c-0.401-0.232-0.728-0.854-0.728-1.39l0,0c0-0.536,0.326-0.781,0.728-0.55
				l4.036,2.328c0.401,0.232,0.728,0.854,0.728,1.39l0,0C97.962,51.827,97.636,52.073,97.234,51.842z"/>
		</g>
		<g>
			<path fill="#5793CE" d="M101.787,24.282c1.218-0.72,1.206-1.867-0.026-2.562s-3.219-0.673-4.437,0.047s-1.206,1.866,0.026,2.561
				S100.569,25.003,101.787,24.282z"/>
			<path fill="#FFFFFF" d="M108.547,28.092c1.218-0.721,1.206-1.867-0.026-2.562s-3.219-0.674-4.437,0.046
				c-1.218,0.721-1.205,1.867,0.027,2.562S107.33,28.812,108.547,28.092z"/>
			<path fill="#FFFFFF" d="M115.308,31.9c1.218-0.72,1.205-1.866-0.027-2.561s-3.218-0.674-4.436,0.046s-1.206,1.867,0.026,2.562
				S114.09,32.621,115.308,31.9z"/>
		</g>
	</g>
	<g>
		<path fill="#EFEFEF" d="M35.223,235.395L4.521,217.669c-1.884-1.088-1.648-2.988,0.528-4.244l29.645-17.115
			c2.176-1.257,5.467-1.393,7.352-0.305l30.702,17.726c1.884,1.088,1.648,2.988-0.528,4.244L42.574,235.09
			C40.398,236.346,37.106,236.482,35.223,235.395z"/>
		<path fill="#396CAA" d="M74.009,205.16L74.009,205.16v-10.593l-23.753-0.014l-8.21-4.74c-1.884-1.088-5.176-0.951-7.352,0.305
			l-7.66,4.423l-23.775-0.014v10.895c-0.054,0.736,0.357,1.447,1.263,1.97l30.702,17.726c1.884,1.088,5.175,0.951,7.351-0.305
			l29.645-17.115C73.474,206.973,74.079,206.034,74.009,205.16z"/>
		<path fill="#396CAA" d="M38.634,189.085c-1.379,0.033-2.81,0.381-3.941,1.033l-7.66,4.423l-23.775-0.014v10.895
			c-0.054,0.736,0.357,1.447,1.263,1.97l30.702,17.726c0.905,0.522,2.136,0.76,3.412,0.729V189.085z"/>
		<path fill="#5793CE" d="M5.949,194.529l-2.691-0.002v10.895c-0.054,0.736,0.357,1.447,1.263,1.97l1.428,0.825V194.529z"/>
		<path fill="#5793CE" d="M35.695,225.349c1.625,0.697,3.976,0.658,5.876-0.066v-12.37h-5.876V225.349z"/>
		<path fill="#D4ECFF" d="M35.223,214.262L4.521,196.536c-1.884-1.088-1.648-2.988,0.528-4.244l29.645-17.115
			c2.176-1.256,5.467-1.393,7.352-0.305l30.702,17.726c1.884,1.088,1.648,2.988-0.528,4.244l-29.645,17.115
			C40.398,215.214,37.106,215.35,35.223,214.262z"/>
		<path fill="#FFFFFF" d="M72.219,194.757l-29.645,17.115c-2.176,1.257-5.467,1.394-7.351,0.306L4.521,194.451
			c-0.42-0.242-0.729-0.526-0.94-0.834c-0.647,1.042-0.354,2.172,0.94,2.919l30.702,17.726c1.884,1.088,5.175,0.952,7.351-0.305
			l29.645-17.115c1.69-0.977,2.204-2.34,1.468-3.41C73.391,193.907,72.9,194.363,72.219,194.757z"/>
		<g>
			<path fill="#D4ECFF" d="M62.716,207.956c0,0.79-0.555,1.752-1.24,2.147c-0.685,0.396-1.24,0.075-1.24-0.716
				s0.555-1.752,1.24-2.147C62.161,206.845,62.716,207.165,62.716,207.956z"/>
			<path fill="#D4ECFF" d="M66.706,205.652c0,0.791-0.555,1.752-1.24,2.147c-0.685,0.396-1.24,0.075-1.24-0.716
				s0.555-1.752,1.24-2.147C66.151,204.541,66.706,204.861,66.706,205.652z"/>
			<path fill="#D4ECFF" d="M70.696,203.349c0,0.791-0.555,1.753-1.24,2.148c-0.685,0.395-1.24,0.074-1.24-0.717
				c0-0.79,0.555-1.752,1.24-2.147C70.141,202.237,70.696,202.558,70.696,203.349z"/>
		</g>
		<g>
			<path fill="#5793CE" d="M37.038,203.272l-14.367-8.295c-0.882-0.509-0.771-1.398,0.247-1.986l13.872-8.009
				c1.019-0.588,2.559-0.651,3.44-0.143l14.367,8.295c0.882,0.509,0.771,1.398-0.247,1.986l-13.872,8.009
				C39.46,203.718,37.919,203.781,37.038,203.272z"/>
			<path fill="#D4ECFF" d="M38.413,196.327l-1.987-1.147c-0.122-0.07-0.107-0.193,0.034-0.274l1.919-1.108
				c0.141-0.081,0.354-0.09,0.476-0.02l1.988,1.147c0.122,0.07,0.106,0.193-0.034,0.274l-1.919,1.108
				C38.748,196.389,38.535,196.397,38.413,196.327z"/>
			<path fill="#396CAA" d="M22.671,194.978l0.041,0.023c0.067-0.048,0.129-0.097,0.207-0.142l13.872-8.009
				c1.019-0.588,2.559-0.652,3.44-0.143l14.326,8.271c0.813-0.582,0.855-1.374,0.041-1.844L40.23,184.84
				c-0.882-0.509-2.422-0.445-3.44,0.143l-13.872,8.009C21.9,193.579,21.789,194.469,22.671,194.978z"/>
		</g>
	</g>
</g>
</svg>
