<?xml version="1.0" encoding="utf-8"?>
<!-- Generator: Adobe Illustrator 18.1.1, SVG Export Plug-In . SVG Version: 6.00 Build 0)  -->
<svg version="1.1" id="Layer_1" xmlns="http://www.w3.org/2000/svg" xmlns:xlink="http://www.w3.org/1999/xlink" x="0px" y="0px"
	 viewBox="0 0 1100 464" enable-background="new 0 0 1100 464" xml:space="preserve">
<g>
	<g>
		<path fill="#D51067" d="M281.945,207.469c0-4.505,1.207-7.911,3.62-10.217c2.414-2.306,5.926-3.459,10.539-3.459
			c4.451,0,7.897,1.18,10.338,3.54c2.44,2.361,3.661,5.74,3.661,10.137c0,4.238-1.234,7.576-3.701,10.016
			c-2.468,2.44-5.901,3.661-10.298,3.661c-4.505,0-7.992-1.194-10.459-3.58C283.178,215.18,281.945,211.813,281.945,207.469z"/>
		<path fill="#D51067" d="M369.737,220.583c-27.997,0-41.996-15.366-41.996-46.099c0-15.286,3.808-26.964,11.424-35.037
			c7.615-8.071,18.53-12.108,32.744-12.108c10.405,0,19.737,2.039,27.997,6.114l-7.241,18.987
			c-3.862-1.555-7.456-2.828-10.781-3.821c-3.326-0.992-6.651-1.488-9.976-1.488c-12.766,0-19.148,9.065-19.148,27.193
			c0,17.593,6.382,26.388,19.148,26.388c4.719,0,9.091-0.63,13.114-1.891c4.023-1.26,8.045-3.231,12.068-5.913v20.998
			c-3.97,2.522-7.979,4.264-12.028,5.229C381.013,220.1,375.904,220.583,369.737,220.583z"/>
		<path fill="#D51067" d="M500.49,173.84c0,14.642-3.862,26.094-11.585,34.353c-7.723,8.26-18.478,12.39-32.261,12.39
			c-8.636,0-16.251-1.891-22.848-5.672c-6.597-3.781-11.666-9.212-15.205-16.291c-3.54-7.08-5.31-15.339-5.31-24.779
			c0-14.695,3.834-26.119,11.505-34.273c7.669-8.152,18.45-12.228,32.342-12.228c8.635,0,16.251,1.878,22.848,5.632
			c6.597,3.755,11.666,9.145,15.205,16.171C498.72,156.169,500.49,164.401,500.49,173.84z M438.301,173.84
			c0,8.904,1.461,15.635,4.385,20.193c2.923,4.559,7.683,6.838,14.28,6.838c6.543,0,11.249-2.265,14.119-6.798
			c2.869-4.532,4.304-11.276,4.304-20.234c0-8.902-1.448-15.58-4.344-20.032c-2.896-4.451-7.643-6.678-14.24-6.678
			c-6.544,0-11.263,2.213-14.159,6.637C439.749,158.192,438.301,164.884,438.301,173.84z"/>
		<path fill="#D51067" d="M602.12,218.974h-24.538v-52.535c0-6.489-1.086-11.356-3.258-14.602
			c-2.172-3.245-5.591-4.867-10.257-4.867c-6.275,0-10.835,2.307-13.677,6.919c-2.843,4.613-4.264,12.202-4.264,22.768v42.318
			h-24.538v-89.945h18.745l3.299,11.505h1.368c2.414-4.13,5.899-7.361,10.459-9.695c4.558-2.333,9.787-3.499,15.688-3.499
			c13.462,0,22.579,4.398,27.353,13.194h2.172c2.414-4.183,5.966-7.428,10.66-9.735c4.692-2.305,9.988-3.459,15.889-3.459
			c10.189,0,17.9,2.615,23.13,7.844c5.229,5.23,7.844,13.61,7.844,25.141v58.649h-24.618v-52.535c0-6.489-1.086-11.356-3.258-14.602
			c-2.172-3.245-5.591-4.867-10.258-4.867c-6.008,0-10.499,2.146-13.476,6.436c-2.977,4.292-4.465,11.102-4.465,20.435V218.974z"/>
	</g>
	<g>
		<path fill="#DD6B8B" d="M687.105,207.383c0-2.821,1.151-4.233,3.455-4.233c2.36,0,3.542,1.411,3.542,4.233
			c0,2.822-1.181,4.233-3.542,4.233C688.257,211.616,687.105,210.206,687.105,207.383z"/>
		<path fill="#DD6B8B" d="M738.555,198.53c0,4.204-1.598,7.436-4.794,9.696c-3.196,2.261-7.731,3.39-13.605,3.39
			c-6.277,0-11.258-0.964-14.944-2.894v-4.621c4.722,2.361,9.703,3.542,14.944,3.542c4.636,0,8.156-0.77,10.56-2.311
			c2.404-1.54,3.607-3.592,3.607-6.154c0-2.361-0.958-4.347-2.872-5.96c-1.915-1.612-5.061-3.196-9.437-4.751
			c-4.693-1.698-7.99-3.16-9.89-4.384c-1.9-1.223-3.333-2.605-4.297-4.146c-0.965-1.54-1.447-3.419-1.447-5.636
			c0-3.513,1.475-6.291,4.427-8.336c2.951-2.044,7.076-3.066,12.374-3.066c5.067,0,9.876,0.95,14.425,2.85l-1.598,3.887
			c-4.607-1.9-8.883-2.85-12.828-2.85c-3.83,0-6.867,0.634-9.113,1.9c-2.246,1.267-3.369,3.023-3.369,5.269
			c0,2.448,0.871,4.405,2.613,5.874c1.742,1.468,5.146,3.11,10.215,4.924c4.232,1.527,7.313,2.901,9.243,4.125
			c1.928,1.224,3.375,2.613,4.34,4.168C738.073,194.599,738.555,196.428,738.555,198.53z"/>
		<path fill="#DD6B8B" d="M770.051,211.616c-6.824,0-12.144-2.102-15.958-6.306c-3.816-4.204-5.723-10.092-5.723-17.665
			c0-7.486,1.842-13.482,5.528-17.989c3.685-4.506,8.652-6.759,14.901-6.759c5.528,0,9.89,1.929,13.086,5.787
			c3.196,3.859,4.794,9.099,4.794,15.721v3.455h-33.818c0.057,6.45,1.562,11.374,4.513,14.771c2.951,3.398,7.177,5.096,12.676,5.096
			c2.678,0,5.031-0.187,7.062-0.561c2.03-0.374,4.6-1.18,7.709-2.419v3.887c-2.649,1.152-5.096,1.937-7.342,2.354
			C775.233,211.407,772.757,211.616,770.051,211.616z M768.798,166.698c-4.521,0-8.149,1.49-10.884,4.47
			c-2.736,2.98-4.334,7.277-4.794,12.892h29.023c0-5.442-1.181-9.696-3.542-12.763C776.241,168.232,772.973,166.698,768.798,166.698
			z"/>
	</g>
	<g>
		<path fill="#8A173A" d="M720.927,303.998c0-3.557,0.953-6.245,2.858-8.066c1.906-1.82,4.678-2.731,8.321-2.731
			c3.514,0,6.234,0.932,8.162,2.794c1.926,1.864,2.89,4.531,2.89,8.003c0,3.345-0.975,5.981-2.922,7.907
			c-1.948,1.926-4.658,2.89-8.13,2.89c-3.557,0-6.31-0.943-8.257-2.827C721.9,310.085,720.927,307.428,720.927,303.998z"/>
		<path fill="#8A173A" d="M826.947,313.08h-19.372v-41.475c0-5.123-0.911-8.965-2.731-11.528c-1.821-2.562-4.722-3.843-8.701-3.843
			c-5.421,0-9.337,1.81-11.75,5.43c-2.413,3.621-3.62,9.622-3.62,18.006v33.409h-19.372v-71.009h14.799l2.604,9.082h1.079
			c2.16-3.43,5.134-6.023,8.924-7.781c3.789-1.756,8.098-2.636,12.925-2.636c8.257,0,14.523,2.234,18.8,6.701
			c4.276,4.468,6.415,10.915,6.415,19.34V313.08z"/>
		<path fill="#8A173A" d="M879.68,314.35c-11.432,0-20.367-3.154-26.803-9.463c-6.437-6.309-9.654-15.244-9.654-26.803
			c0-11.898,2.974-21.097,8.924-27.597c5.949-6.499,14.174-9.75,24.675-9.75c10.035,0,17.847,2.858,23.437,8.575
			c5.589,5.716,8.384,13.614,8.384,23.691v9.4h-45.794c0.211,5.505,1.842,9.803,4.89,12.893c3.049,3.091,7.325,4.637,12.83,4.637
			c4.276,0,8.321-0.445,12.131-1.334c3.811-0.889,7.791-2.307,11.941-4.255v14.989c-3.388,1.694-7.008,2.953-10.861,3.779
			C889.926,313.938,885.226,314.35,879.68,314.35z M876.949,254.52c-4.107,0-7.326,1.302-9.654,3.906
			c-2.329,2.604-3.663,6.299-4.002,11.083h27.184c-0.086-4.784-1.334-8.479-3.747-11.083
			C884.316,255.822,881.056,254.52,876.949,254.52z"/>
		<path fill="#8A173A" d="M954.96,298.916c3.387,0,7.452-0.74,12.195-2.223v14.418c-4.827,2.16-10.756,3.239-17.784,3.239
			c-7.749,0-13.392-1.958-16.927-5.875c-3.536-3.916-5.303-9.791-5.303-17.625v-34.234h-9.273v-8.193l10.671-6.479l5.589-14.989
			h12.385v15.116h19.88v14.545h-19.88v34.234c0,2.753,0.772,4.785,2.318,6.097C950.376,298.26,952.419,298.916,954.96,298.916z"/>
	</g>
	<g>
		<path fill="#DD6B8B" d="M174.057,317.806c0-2.678,0.697-4.734,2.092-6.165c1.394-1.431,3.413-2.147,6.055-2.147
			c2.678,0,4.715,0.743,6.11,2.229c1.394,1.486,2.092,3.514,2.092,6.083c0,2.606-0.707,4.67-2.119,6.193
			c-1.413,1.522-3.441,2.284-6.083,2.284s-4.661-0.752-6.055-2.257C174.753,322.522,174.057,320.448,174.057,317.806z"/>
		<path fill="#DD6B8B" d="M261.538,294.136c0,9.945-2.551,17.707-7.651,23.284c-5.101,5.579-12.202,8.367-21.303,8.367
			c-5.689,0-10.716-1.284-15.083-3.853c-4.368-2.568-7.725-6.256-10.073-11.064c-2.349-4.807-3.523-10.385-3.523-16.734
			c0-9.871,2.532-17.578,7.596-23.119c5.064-5.541,12.201-8.312,21.413-8.312c8.807,0,15.779,2.835,20.917,8.505
			C258.969,276.879,261.538,284.522,261.538,294.136z M217.226,294.136c0,14.056,5.192,21.083,15.578,21.083
			c10.275,0,15.413-7.027,15.413-21.083c0-13.908-5.174-20.862-15.523-20.862c-5.431,0-9.367,1.798-11.807,5.394
			C218.446,282.265,217.226,287.42,217.226,294.136z"/>
		<path fill="#DD6B8B" d="M307.845,262.705c2.605,0,4.752,0.184,6.44,0.55l-1.266,12.055c-1.835-0.441-3.743-0.661-5.725-0.661
			c-5.174,0-9.367,1.688-12.578,5.064c-3.212,3.377-4.816,7.762-4.816,13.156v31.816h-12.936v-60.881h10.128l1.706,10.734h0.661
			c2.018-3.633,4.651-6.514,7.899-8.642C300.606,263.769,304.102,262.705,307.845,262.705z"/>
		<path fill="#DD6B8B" d="M377.546,263.805v7.101l-10.404,1.927c0.954,1.285,1.743,2.862,2.367,4.734
			c0.623,1.872,0.936,3.853,0.936,5.945c0,6.275-2.166,11.211-6.495,14.807c-4.331,3.597-10.294,5.394-17.89,5.394
			c-1.946,0-3.707-0.146-5.284-0.44c-2.789,1.725-4.184,3.743-4.184,6.055c0,1.395,0.651,2.441,1.954,3.137
			c1.302,0.698,3.697,1.046,7.183,1.046h10.624c6.715,0,11.816,1.431,15.303,4.294c3.486,2.862,5.229,6.991,5.229,12.385
			c0,6.899-2.844,12.22-8.532,15.964c-5.689,3.743-13.909,5.615-24.661,5.615c-8.294,0-14.624-1.468-18.991-4.404
			c-4.368-2.936-6.551-7.12-6.551-12.551c0-3.743,1.184-6.89,3.55-9.44c2.367-2.55,5.678-4.321,9.936-5.312
			c-1.725-0.734-3.147-1.917-4.266-3.551c-1.12-1.633-1.679-3.348-1.679-5.147c0-2.275,0.642-4.201,1.927-5.78
			c1.284-1.577,3.193-3.137,5.725-4.679c-3.157-1.357-5.716-3.569-7.679-6.633c-1.964-3.064-2.945-6.651-2.945-10.761
			c0-6.606,2.082-11.725,6.248-15.358c4.165-3.633,10.101-5.45,17.807-5.45c1.725,0,3.532,0.12,5.422,0.358
			c1.89,0.239,3.311,0.487,4.266,0.743H377.546z M329.711,334.154c0,2.789,1.257,4.936,3.771,6.44
			c2.513,1.505,6.046,2.257,10.596,2.257c7.046,0,12.293-1.009,15.743-3.027c3.449-2.019,5.174-4.698,5.174-8.037
			c0-2.642-0.945-4.523-2.835-5.642c-1.891-1.12-5.404-1.679-10.541-1.679h-9.798c-3.707,0-6.652,0.871-8.835,2.615
			C330.803,328.823,329.711,331.182,329.711,334.154z M335.271,283.512c0,3.817,0.981,6.753,2.945,8.807
			c1.963,2.056,4.779,3.083,8.45,3.083c7.486,0,11.229-3.999,11.229-12c0-3.963-0.927-7.018-2.78-9.165
			c-1.854-2.147-4.67-3.22-8.45-3.22c-3.743,0-6.578,1.065-8.505,3.192C336.234,276.338,335.271,279.439,335.271,283.512z"/>
	</g>
	<g>
		<path fill="#919395" d="M573.986,99.557c0-2.102,0.547-3.714,1.641-4.837c1.094-1.123,2.678-1.684,4.751-1.684
			c2.101,0,3.699,0.583,4.794,1.749c1.094,1.166,1.641,2.757,1.641,4.773c0,2.045-0.555,3.664-1.663,4.859
			c-1.109,1.195-2.699,1.792-4.772,1.792s-3.657-0.591-4.751-1.771C574.533,103.257,573.986,101.63,573.986,99.557z"/>
		<path fill="#919395" d="M624.659,56.324c5.96,0,10.603,2.159,13.929,6.478c3.326,4.319,4.989,10.38,4.989,18.183
			c0,7.832-1.684,13.929-5.053,18.291c-3.369,4.362-8.048,6.543-14.037,6.543c-6.046,0-10.74-2.174-14.08-6.522h-0.691l-1.857,5.658
			h-7.602V37.752h10.15v15.98c0,1.181-0.058,2.937-0.172,5.269c-0.116,2.332-0.202,3.815-0.259,4.448h0.432
			C613.63,58.699,618.381,56.324,624.659,56.324z M622.024,64.616c-4.089,0-7.033,1.203-8.832,3.606
			c-1.8,2.405-2.728,6.428-2.786,12.072v0.691c0,5.816,0.921,10.028,2.764,12.633c1.843,2.606,4.852,3.909,9.027,3.909
			c3.599,0,6.327-1.425,8.184-4.276c1.857-2.851,2.786-6.968,2.786-12.352C633.167,70.044,629.453,64.616,622.024,64.616z"/>
		<path fill="#919395" d="M655.204,44.533c0-1.814,0.497-3.21,1.49-4.189c0.993-0.979,2.411-1.468,4.254-1.468
			c1.785,0,3.174,0.49,4.168,1.468c0.993,0.979,1.49,2.376,1.49,4.189c0,1.728-0.497,3.088-1.49,4.081
			c-0.994,0.993-2.383,1.49-4.168,1.49c-1.843,0-3.261-0.497-4.254-1.49C655.701,47.621,655.204,46.261,655.204,44.533z
			 M665.958,104.956h-10.15V57.188h10.15V104.956z"/>
		<path fill="#919395" d="M712.829,104.956h-36.236v-6.263l24.143-33.731h-22.675v-7.774h34.077v7.083l-23.625,32.911h24.316
			V104.956z"/>
	</g>
	<g>
		<path fill="#5A5A5D" d="M403.818,351.422c0-3.296,0.857-5.826,2.575-7.588c1.716-1.762,4.2-2.642,7.452-2.642
			c3.296,0,5.803,0.915,7.52,2.744c1.716,1.829,2.575,4.326,2.575,7.486c0,3.207-0.87,5.748-2.608,7.622
			c-1.739,1.874-4.234,2.812-7.486,2.812s-5.736-0.926-7.452-2.778C404.675,357.226,403.818,354.674,403.818,351.422z"/>
		<path fill="#5A5A5D" d="M444.077,265.11c0-2.845,0.779-5.035,2.337-6.572c1.558-1.535,3.782-2.303,6.673-2.303
			c2.8,0,4.98,0.768,6.538,2.303c1.558,1.536,2.337,3.727,2.337,6.572c0,2.71-0.779,4.844-2.337,6.403
			c-1.558,1.558-3.738,2.337-6.538,2.337c-2.891,0-5.115-0.779-6.673-2.337C444.856,269.954,444.077,267.82,444.077,265.11z
			 M460.947,359.89h-15.921v-74.93h15.921V359.89z"/>
		<path fill="#5A5A5D" d="M550.323,359.89h-15.989v-46.069c0-5.781-1.163-10.095-3.489-12.94c-2.327-2.845-6.019-4.268-11.077-4.268
			c-6.73,0-11.653,1.988-14.769,5.962c-3.116,3.975-4.675,10.637-4.675,19.986v37.33h-15.921v-74.93h12.466l2.236,9.824h0.813
			c2.258-3.567,5.464-6.323,9.62-8.265c4.155-1.942,8.762-2.913,13.821-2.913c17.976,0,26.964,9.146,26.964,27.438V359.89z"/>
		<path fill="#5A5A5D" d="M610.772,297.02h-18.292v62.871h-15.989V297.02h-12.33v-7.453l12.33-4.878v-4.878
			c0-8.852,2.077-15.413,6.233-19.681c4.155-4.268,10.501-6.402,19.038-6.402c5.6,0,11.111,0.926,16.531,2.777l-4.201,12.059
			c-3.929-1.264-7.679-1.897-11.246-1.897c-3.614,0-6.245,1.118-7.893,3.354c-1.649,2.236-2.473,5.589-2.473,10.061v4.878h18.292
			V297.02z"/>
		<path fill="#5A5A5D" d="M690.664,322.29c0,12.24-3.14,21.793-9.417,28.658c-6.278,6.866-15.018,10.298-26.219,10.298
			c-7.002,0-13.189-1.58-18.563-4.742c-5.375-3.161-9.508-7.7-12.398-13.618c-2.891-5.916-4.336-12.781-4.336-20.595
			c0-12.149,3.117-21.634,9.349-28.455c6.233-6.819,15.017-10.23,26.354-10.23c10.84,0,19.42,3.489,25.745,10.467
			C687.502,301.05,690.664,310.457,690.664,322.29z M636.126,322.29c0,17.299,6.391,25.948,19.173,25.948
			c12.646,0,18.97-8.649,18.97-25.948c0-17.117-6.369-25.677-19.105-25.677c-6.685,0-11.529,2.214-14.532,6.639
			C637.627,307.679,636.126,314.024,636.126,322.29z"/>
	</g>
	<g>
		<path fill="#D51067" d="M701.463,391.123c0-2.101,0.547-3.714,1.641-4.837c1.094-1.123,2.678-1.684,4.751-1.684
			c2.101,0,3.699,0.583,4.794,1.749c1.094,1.166,1.641,2.757,1.641,4.772c0,2.045-0.555,3.665-1.663,4.859
			c-1.109,1.194-2.699,1.792-4.772,1.792c-2.073,0-3.657-0.59-4.751-1.771C702.009,394.823,701.463,393.196,701.463,391.123z"/>
		<path fill="#D51067" d="M748.593,397.385c-7.429,0-13.238-2.166-17.427-6.5c-4.19-4.333-6.284-10.301-6.284-17.902
			c0-7.803,1.944-13.936,5.831-18.399c3.887-4.463,9.228-6.695,16.023-6.695c6.306,0,11.287,1.915,14.944,5.744
			c3.656,3.83,5.485,9.099,5.485,15.808v5.485h-31.831c0.144,4.636,1.396,8.199,3.758,10.69c2.36,2.491,5.686,3.736,9.977,3.736
			c2.821,0,5.448-0.266,7.882-0.799c2.433-0.532,5.046-1.418,7.839-2.656v8.249c-2.477,1.181-4.982,2.016-7.515,2.505
			C754.74,397.14,751.847,397.385,748.593,397.385z M746.736,355.577c-3.225,0-5.809,1.023-7.752,3.067
			c-1.944,2.045-3.103,5.025-3.477,8.94h21.681c-0.058-3.944-1.008-6.932-2.85-8.962
			C752.494,356.593,749.96,355.577,746.736,355.577z"/>
		<path fill="#D51067" d="M812.827,396.522l-1.425-6.263h-0.518c-1.411,2.218-3.419,3.959-6.025,5.226
			c-2.606,1.267-5.579,1.9-8.919,1.9c-5.787,0-10.106-1.439-12.957-4.319c-2.85-2.879-4.276-7.241-4.276-13.087v-31.226h10.236
			v29.456c0,3.657,0.748,6.399,2.246,8.227c1.497,1.829,3.844,2.743,7.04,2.743c4.261,0,7.392-1.274,9.394-3.822
			c2.001-2.548,3.002-6.817,3.002-12.806v-23.797h10.193v47.768H812.827z"/>
	</g>
	<g>
		<path fill="#919395" d="M54.671,238.495c0-1.401,0.364-2.476,1.094-3.225c0.729-0.749,1.785-1.123,3.167-1.123
			c1.401,0,2.466,0.389,3.196,1.166c0.729,0.777,1.094,1.838,1.094,3.182c0,1.363-0.37,2.443-1.108,3.239
			c-0.739,0.796-1.8,1.195-3.182,1.195c-1.382,0-2.438-0.394-3.167-1.18C55.036,240.962,54.671,239.878,54.671,238.495z"/>
		<path fill="#919395" d="M88.164,215.374H80.39v26.72h-6.795v-26.72h-5.24v-3.167l5.24-2.073v-2.073
			c0-3.762,0.883-6.55,2.649-8.364c1.766-1.814,4.463-2.721,8.091-2.721c2.38,0,4.722,0.394,7.025,1.181l-1.785,5.125
			c-1.67-0.537-3.264-0.806-4.78-0.806c-1.536,0-2.654,0.475-3.354,1.425c-0.701,0.95-1.051,2.375-1.051,4.276v2.073h7.774V215.374z
			 M93.174,201.813c0-1.209,0.331-2.14,0.993-2.793c0.662-0.652,1.608-0.979,2.836-0.979c1.19,0,2.116,0.327,2.779,0.979
			c0.662,0.653,0.993,1.584,0.993,2.793c0,1.152-0.331,2.059-0.993,2.721c-0.662,0.662-1.589,0.993-2.779,0.993
			c-1.229,0-2.174-0.331-2.836-0.993C93.506,203.872,93.174,202.965,93.174,201.813z M100.344,242.095h-6.766v-31.845h6.766V242.095
			z"/>
	</g>
	<g>
		<path fill="#5A5A5D" d="M732.501,121.983c0-1.401,0.364-2.476,1.094-3.225c0.729-0.749,1.785-1.123,3.167-1.123
			c1.401,0,2.466,0.389,3.196,1.166c0.729,0.777,1.094,1.838,1.094,3.182c0,1.363-0.37,2.443-1.109,3.239
			c-0.739,0.796-1.799,1.195-3.182,1.195c-1.382,0-2.438-0.394-3.167-1.181C732.865,124.45,732.501,123.365,732.501,121.983z"/>
		<path fill="#5A5A5D" d="M778.03,125.582h-6.795v-19.579c0-2.457-0.494-4.29-1.483-5.499c-0.989-1.209-2.558-1.814-4.708-1.814
			c-2.86,0-4.952,0.845-6.277,2.534c-1.324,1.689-1.986,4.521-1.986,8.494v15.865h-6.766V93.737h5.298l0.95,4.175h0.345
			c0.96-1.516,2.322-2.687,4.089-3.513c1.766-0.825,3.724-1.238,5.874-1.238c7.64,0,11.46,3.887,11.46,11.661V125.582z"/>
		<path fill="#5A5A5D" d="M815.986,109.602c0,5.202-1.334,9.262-4.002,12.18c-2.668,2.918-6.382,4.377-11.143,4.377
			c-2.976,0-5.605-0.672-7.889-2.016c-2.285-1.343-4.041-3.272-5.269-5.787c-1.229-2.514-1.843-5.432-1.843-8.753
			c0-5.163,1.325-9.194,3.974-12.093c2.649-2.898,6.382-4.348,11.2-4.348c4.607,0,8.254,1.483,10.942,4.449
			C814.643,100.575,815.986,104.573,815.986,109.602z M792.808,109.602c0,7.352,2.716,11.028,8.148,11.028
			c5.375,0,8.062-3.676,8.062-11.028c0-7.275-2.707-10.912-8.119-10.912c-2.841,0-4.9,0.941-6.176,2.822
			C793.446,103.392,792.808,106.089,792.808,109.602z"/>
	</g>
	<g>
		<path fill="#8A173A" d="M237.306,132.008c0-1.881,0.768-2.822,2.304-2.822c1.574,0,2.361,0.941,2.361,2.822
			c0,1.882-0.787,2.822-2.361,2.822C238.074,134.83,237.306,133.89,237.306,132.008z"/>
		<path fill="#8A173A" d="M265.588,134.83c-4.818,0-8.331-1.804-10.538-5.413h-0.202l0.086,2.419
			c0.076,1.421,0.115,2.975,0.115,4.665v11.92h-2.85v-45.465h2.419l0.547,4.463h0.173c2.15-3.378,5.586-5.068,10.308-5.068
			c4.223,0,7.443,1.387,9.66,4.161c2.217,2.774,3.326,6.81,3.326,12.108c0,5.145-1.166,9.132-3.498,11.964
			C272.801,133.415,269.619,134.83,265.588,134.83z M265.531,132.296c3.206,0,5.687-1.19,7.443-3.57
			c1.757-2.38,2.635-5.71,2.635-9.991c0-9.195-3.321-13.792-9.963-13.792c-3.647,0-6.325,1.003-8.033,3.009
			c-1.709,2.006-2.563,5.274-2.563,9.804v0.921c0,4.895,0.821,8.389,2.462,10.481C259.153,131.25,261.826,132.296,265.531,132.296z"
			/>
		<path fill="#8A173A" d="M295.857,132.296c1.804,0,3.378-0.153,4.722-0.461v2.303c-1.382,0.461-2.976,0.691-4.78,0.691
			c-2.764,0-4.804-0.739-6.118-2.217c-1.315-1.478-1.972-3.801-1.972-6.968v-20.213h-4.636v-1.67l4.636-1.296l1.44-7.083h1.469
			v7.573h9.185v2.476h-9.185v19.81c0,2.4,0.422,4.175,1.267,5.327C292.728,131.72,294.052,132.296,295.857,132.296z"/>
	</g>
	<g>
		<path fill="#5A5A5D" d="M848.891,369.144c0-1.03,0.268-1.821,0.804-2.371c0.536-0.55,1.313-0.826,2.329-0.826
			c1.03,0,1.814,0.286,2.35,0.857c0.536,0.572,0.805,1.352,0.805,2.34c0,1.002-0.272,1.796-0.815,2.382
			c-0.543,0.586-1.323,0.878-2.339,0.878c-1.016,0-1.793-0.289-2.329-0.868S848.891,370.16,848.891,369.144z"/>
		<path fill="#5A5A5D" d="M876.42,371.79l-0.995-3.26h-0.169c-1.129,1.426-2.265,2.396-3.409,2.911s-2.611,0.773-4.404,0.773
			c-2.3,0-4.097-0.621-5.388-1.863s-1.937-2.999-1.937-5.272c0-2.414,0.896-4.234,2.688-5.462c1.792-1.228,4.524-1.898,8.194-2.011
			l4.044-0.127v-1.249c0-1.496-0.349-2.615-1.048-3.356c-0.698-0.741-1.782-1.112-3.25-1.112c-1.2,0-2.35,0.177-3.451,0.529
			c-1.101,0.353-2.159,0.769-3.176,1.249l-1.609-3.557c1.27-0.663,2.66-1.168,4.171-1.513c1.51-0.346,2.936-0.519,4.276-0.519
			c2.978,0,5.226,0.649,6.743,1.948c1.517,1.299,2.276,3.338,2.276,6.119v15.773H876.42z M869.01,368.403
			c1.807,0,3.257-0.505,4.351-1.514c1.094-1.009,1.641-2.424,1.641-4.245v-2.032l-3.006,0.127c-2.343,0.085-4.047,0.477-5.113,1.175
			c-1.066,0.698-1.599,1.768-1.599,3.207c0,1.045,0.31,1.853,0.932,2.424C866.836,368.117,867.767,368.403,869.01,368.403z"/>
		<path fill="#5A5A5D" d="M895.86,368.191c1.214,0,2.427-0.19,3.641-0.572v3.747c-0.55,0.24-1.26,0.441-2.128,0.603
			c-0.868,0.162-1.768,0.244-2.7,0.244c-4.714,0-7.071-2.484-7.071-7.452v-12.618h-3.197v-2.202l3.43-1.821l1.694-4.954h3.07v5.208
			h6.669v3.769H892.6v12.534c0,1.2,0.3,2.085,0.9,2.657C894.099,367.905,894.886,368.191,895.86,368.191z"/>
	</g>
	<g>
		<path fill="#D51067" d="M105.38,292.578c0-1.03,0.268-1.821,0.804-2.371c0.536-0.55,1.313-0.826,2.329-0.826
			c1.03,0,1.813,0.286,2.35,0.857c0.536,0.572,0.804,1.352,0.804,2.34c0,1.002-0.272,1.796-0.815,2.382
			c-0.544,0.586-1.323,0.878-2.339,0.878s-1.793-0.289-2.329-0.868C105.648,294.391,105.38,293.594,105.38,292.578z"/>
		<path fill="#D51067" d="M130.219,271.385c2.922,0,5.198,1.059,6.828,3.176c1.63,2.117,2.445,5.089,2.445,8.913
			c0,3.839-0.826,6.828-2.477,8.966c-1.652,2.138-3.945,3.207-6.881,3.207c-2.964,0-5.265-1.066-6.902-3.197h-0.339l-0.91,2.774
			h-3.726v-32.943h4.975v7.834c0,0.579-0.028,1.44-0.085,2.583c-0.056,1.143-0.099,1.87-0.127,2.181h0.212
			C124.813,272.549,127.142,271.385,130.219,271.385z M128.928,275.449c-2.004,0-3.448,0.59-4.33,1.768
			c-0.882,1.179-1.337,3.151-1.365,5.918v0.339c0,2.851,0.452,4.915,1.355,6.193c0.903,1.277,2.378,1.916,4.425,1.916
			c1.764,0,3.101-0.699,4.012-2.096c0.91-1.397,1.365-3.416,1.365-6.055C134.39,278.11,132.569,275.449,128.928,275.449z"/>
		<path fill="#D51067" d="M155.715,295.647c-3.642,0-6.489-1.062-8.543-3.186c-2.054-2.124-3.08-5.05-3.08-8.776
			c0-3.825,0.953-6.831,2.858-9.019c1.906-2.188,4.523-3.282,7.855-3.282c3.091,0,5.533,0.939,7.325,2.816
			c1.792,1.877,2.689,4.46,2.689,7.749v2.689h-15.603c0.07,2.273,0.684,4.019,1.842,5.24c1.157,1.221,2.787,1.831,4.891,1.831
			c1.383,0,2.671-0.13,3.864-0.391c1.193-0.261,2.473-0.695,3.843-1.302v4.044c-1.214,0.579-2.442,0.988-3.684,1.228
			C158.728,295.527,157.31,295.647,155.715,295.647z M154.804,275.153c-1.581,0-2.848,0.501-3.8,1.503
			c-0.953,1.002-1.521,2.463-1.704,4.382h10.628c-0.028-1.934-0.494-3.398-1.397-4.393
			C157.627,275.651,156.385,275.153,154.804,275.153z"/>
	</g>
	<g>
		<path fill="#919395" d="M336.36,102.309c0-1.03,0.268-1.821,0.804-2.371c0.536-0.551,1.313-0.826,2.329-0.826
			c1.03,0,1.813,0.286,2.35,0.857c0.536,0.572,0.804,1.352,0.804,2.339c0,1.002-0.272,1.796-0.815,2.382
			c-0.544,0.585-1.323,0.879-2.339,0.879s-1.793-0.289-2.329-0.868C336.628,104.123,336.36,103.325,336.36,102.309z"/>
		<path fill="#919395" d="M348.941,75.337c0-0.889,0.243-1.574,0.73-2.054c0.487-0.48,1.182-0.72,2.085-0.72
			c0.875,0,1.556,0.24,2.043,0.72c0.487,0.48,0.73,1.164,0.73,2.054c0,0.847-0.243,1.514-0.73,2.001
			c-0.487,0.487-1.168,0.73-2.043,0.73c-0.903,0-1.598-0.243-2.085-0.73S348.941,76.184,348.941,75.337z M354.212,104.956h-4.975
			V81.54h4.975V104.956z"/>
		<path fill="#919395" d="M370.265,101.357c1.214,0,2.427-0.191,3.641-0.572v3.747c-0.55,0.24-1.26,0.441-2.128,0.604
			c-0.868,0.162-1.768,0.243-2.699,0.243c-4.714,0-7.071-2.484-7.071-7.452V85.309h-3.197v-2.202l3.43-1.821l1.694-4.954h3.07v5.208
			h6.669v3.769h-6.669v12.533c0,1.2,0.3,2.085,0.9,2.657C368.504,101.071,369.291,101.357,370.265,101.357z"/>
	</g>
	<g>
		<path fill="#8A173A" d="M627.395,410.202c0-1.185,0.318-2.082,0.953-2.689c0.635-0.606,1.559-0.91,2.773-0.91
			c1.171,0,2.078,0.311,2.721,0.931c0.642,0.621,0.963,1.51,0.963,2.668c0,1.115-0.325,1.994-0.974,2.636
			c-0.649,0.642-1.552,0.963-2.71,0.963c-1.186,0-2.103-0.314-2.752-0.942C627.719,412.231,627.395,411.345,627.395,410.202z"/>
		<path fill="#8A173A" d="M651.599,413.653c-3.811,0-6.789-1.051-8.934-3.154c-2.145-2.103-3.218-5.081-3.218-8.934
			c0-3.966,0.991-7.032,2.975-9.199c1.983-2.166,4.724-3.25,8.225-3.25c3.345,0,5.949,0.953,7.812,2.858
			c1.863,1.905,2.795,4.538,2.795,7.897v3.134h-15.265c0.07,1.835,0.614,3.268,1.63,4.298c1.016,1.03,2.442,1.546,4.277,1.546
			c1.425,0,2.773-0.148,4.044-0.445c1.27-0.296,2.597-0.769,3.98-1.418v4.996c-1.129,0.565-2.336,0.985-3.62,1.26
			C655.014,413.515,653.448,413.653,651.599,413.653z M650.688,393.709c-1.369,0-2.442,0.434-3.218,1.302
			c-0.776,0.868-1.221,2.099-1.334,3.694h9.061c-0.028-1.595-0.444-2.827-1.249-3.694
			C653.144,394.143,652.057,393.709,650.688,393.709z"/>
		<path fill="#8A173A" d="M683.234,406.201c0,2.428-0.844,4.276-2.53,5.547c-1.687,1.271-4.21,1.906-7.569,1.906
			c-1.722,0-3.19-0.116-4.403-0.349c-1.214-0.233-2.35-0.575-3.409-1.027v-5.335c1.199,0.565,2.551,1.038,4.054,1.419
			c1.503,0.381,2.827,0.572,3.97,0.572c2.343,0,3.515-0.678,3.515-2.032c0-0.508-0.155-0.921-0.466-1.238
			c-0.311-0.318-0.847-0.678-1.609-1.08c-0.762-0.402-1.778-0.871-3.049-1.408c-1.821-0.762-3.158-1.468-4.012-2.117
			c-0.854-0.649-1.475-1.394-1.863-2.234c-0.388-0.84-0.582-1.874-0.582-3.102c0-2.103,0.815-3.729,2.445-4.88
			c1.63-1.15,3.942-1.725,6.934-1.725c2.851,0,5.624,0.621,8.32,1.863l-1.948,4.658c-1.185-0.508-2.294-0.924-3.324-1.249
			c-1.03-0.324-2.082-0.487-3.154-0.487c-1.906,0-2.858,0.515-2.858,1.546c0,0.579,0.307,1.08,0.921,1.503
			c0.614,0.424,1.959,1.052,4.033,1.884c1.849,0.748,3.204,1.447,4.065,2.096c0.861,0.649,1.496,1.397,1.906,2.244
			C683.03,404.02,683.234,405.029,683.234,406.201z"/>
	</g>
	<g>
		<path fill="#919395" d="M1011.515,217.322c0-1.383,0.564-2.075,1.694-2.075c1.157,0,1.736,0.692,1.736,2.075
			c0,1.383-0.579,2.075-1.736,2.075C1012.079,219.397,1011.515,218.706,1011.515,217.322z"/>
		<path fill="#919395" d="M1022.169,189.566c0-1.355,0.445-2.032,1.334-2.032c0.437,0,0.78,0.177,1.027,0.529
			c0.247,0.353,0.37,0.854,0.37,1.503c0,0.635-0.124,1.136-0.37,1.503c-0.247,0.367-0.589,0.55-1.027,0.55
			C1022.614,191.62,1022.169,190.936,1022.169,189.566z M1024.562,218.974h-2.096V195.96h2.096V218.974z"/>
		<path fill="#919395" d="M1041.779,219.397c-3.345,0-5.953-1.03-7.823-3.091c-1.87-2.061-2.805-4.947-2.805-8.659
			c0-3.67,0.903-6.609,2.71-8.818c1.806-2.209,4.241-3.313,7.304-3.313c2.71,0,4.848,0.946,6.415,2.837
			c1.567,1.891,2.35,4.46,2.35,7.706v1.694h-16.577c0.028,3.162,0.765,5.575,2.212,7.241c1.447,1.666,3.518,2.498,6.214,2.498
			c1.313,0,2.466-0.091,3.462-0.275c0.995-0.183,2.255-0.579,3.779-1.186v1.906c-1.299,0.565-2.498,0.949-3.599,1.154
			C1044.32,219.294,1043.106,219.397,1041.779,219.397z M1041.165,197.379c-2.216,0-3.995,0.73-5.335,2.191s-2.124,3.567-2.35,6.32
			h14.227c0-2.668-0.579-4.753-1.736-6.256C1044.814,198.13,1043.212,197.379,1041.165,197.379z"/>
	</g>
	<g>
		<path fill="#D51067" d="M981.206,283.884c0-1.03,0.268-1.821,0.805-2.371c0.536-0.55,1.313-0.826,2.329-0.826
			c1.03,0,1.814,0.286,2.35,0.857c0.536,0.572,0.804,1.352,0.804,2.34c0,1.002-0.272,1.796-0.815,2.382s-1.323,0.878-2.339,0.878
			c-1.016,0-1.793-0.289-2.329-0.868S981.206,284.9,981.206,283.884z"/>
		<path fill="#D51067" d="M1003.526,286.954c-3.543,0-6.235-1.034-8.077-3.102c-1.842-2.067-2.763-5.035-2.763-8.902
			c0-3.938,0.963-6.966,2.89-9.083c1.927-2.117,4.711-3.176,8.352-3.176c2.47,0,4.693,0.459,6.669,1.376l-1.503,4.001
			c-2.103-0.818-3.839-1.228-5.208-1.228c-4.051,0-6.077,2.689-6.077,8.066c0,2.625,0.505,4.598,1.514,5.918
			c1.009,1.32,2.488,1.979,4.435,1.979c2.216,0,4.312-0.55,6.288-1.652v4.34c-0.889,0.522-1.839,0.897-2.848,1.122
			C1006.19,286.841,1004.965,286.954,1003.526,286.954z"/>
		<path fill="#D51067" d="M1036.368,286.53h-4.997v-14.397c0-1.807-0.364-3.154-1.09-4.044c-0.727-0.889-1.881-1.334-3.462-1.334
			c-2.089,0-3.624,0.625-4.605,1.874c-0.981,1.249-1.471,3.342-1.471,6.277v11.623h-4.975v-32.943h4.975v8.363
			c0,1.341-0.085,2.773-0.254,4.298h0.318c0.678-1.129,1.62-2.004,2.827-2.625c1.207-0.621,2.615-0.932,4.223-0.932
			c5.674,0,8.511,2.858,8.511,8.575V286.53z"/>
	</g>
	<g>
		<path fill="#424242" d="M406.219,102.309c0-1.03,0.268-1.821,0.804-2.371c0.536-0.551,1.313-0.826,2.329-0.826
			c1.03,0,1.813,0.286,2.35,0.857c0.536,0.572,0.804,1.352,0.804,2.339c0,1.002-0.272,1.796-0.815,2.382
			c-0.544,0.585-1.323,0.879-2.339,0.879s-1.793-0.289-2.329-0.868C406.487,104.123,406.219,103.325,406.219,102.309z"/>
		<path fill="#424242" d="M430.847,85.309h-5.716v19.647h-4.996V85.309h-3.853V82.98l3.853-1.524v-1.524
			c0-2.766,0.649-4.816,1.948-6.15c1.298-1.334,3.282-2.001,5.949-2.001c1.75,0,3.472,0.289,5.166,0.868l-1.312,3.768
			c-1.228-0.395-2.4-0.593-3.515-0.593c-1.129,0-1.951,0.349-2.466,1.048c-0.515,0.699-0.773,1.747-0.773,3.144v1.524h5.716V85.309z
			"/>
		<path fill="#424242" d="M446.921,81.117c1.002,0,1.828,0.071,2.477,0.212l-0.487,4.636c-0.706-0.169-1.44-0.254-2.202-0.254
			c-1.99,0-3.603,0.649-4.838,1.948c-1.235,1.299-1.852,2.985-1.852,5.06v12.237h-4.975V81.54h3.896l0.656,4.129h0.254
			c0.776-1.397,1.789-2.505,3.038-3.324C444.137,81.526,445.481,81.117,446.921,81.117z"/>
	</g>
	<g>
		<path fill="#8A173A" d="M51.009,293.903c0-1.107,0.452-1.66,1.355-1.66c0.926,0,1.389,0.553,1.389,1.66
			c0,1.107-0.463,1.66-1.389,1.66C51.461,295.563,51.009,295.01,51.009,293.903z"/>
		<path fill="#8A173A" d="M70.948,295.224l-0.424-2.913H70.39c-0.926,1.185-1.877,2.024-2.854,2.515
			c-0.977,0.491-2.131,0.737-3.464,0.737c-1.807,0-3.212-0.463-4.217-1.389c-1.005-0.926-1.507-2.207-1.507-3.845
			c0-1.795,0.748-3.19,2.244-4.183c1.496-0.994,3.661-1.518,6.495-1.575l3.506-0.102v-1.219c0-1.75-0.356-3.071-1.067-3.963
			c-0.711-0.892-1.857-1.338-3.438-1.338c-1.705,0-3.472,0.474-5.301,1.423l-0.627-1.457c2.021-0.948,4.019-1.423,5.996-1.423
			c2.021,0,3.531,0.525,4.531,1.575c0.999,1.05,1.499,2.688,1.499,4.912v12.245H70.948z M64.174,294.039
			c1.965,0,3.514-0.562,4.649-1.686c1.135-1.123,1.702-2.685,1.702-4.683v-1.812l-3.218,0.136c-2.586,0.124-4.429,0.528-5.53,1.211
			c-1.101,0.683-1.652,1.747-1.652,3.192c0,1.152,0.353,2.047,1.059,2.685C61.89,293.72,62.886,294.039,64.174,294.039z"/>
		<path fill="#8A173A" d="M83.181,294.072c1.061,0,1.987-0.09,2.778-0.271v1.355c-0.813,0.271-1.75,0.406-2.812,0.406
			c-1.626,0-2.826-0.435-3.599-1.304c-0.774-0.869-1.16-2.236-1.16-4.099v-11.89h-2.727v-0.982l2.727-0.762l0.847-4.167h0.864v4.455
			h5.403v1.457h-5.403v11.653c0,1.412,0.248,2.456,0.745,3.134C81.341,293.734,82.119,294.072,83.181,294.072z"/>
	</g>
	<g>
		<path fill="#DD6B8B" d="M164.252,148.588c0-1.107,0.452-1.66,1.355-1.66c0.926,0,1.389,0.553,1.389,1.66
			c0,1.107-0.463,1.66-1.389,1.66C164.704,150.248,164.252,149.695,164.252,148.588z"/>
		<path fill="#DD6B8B" d="M180.889,150.248c-2.834,0-4.901-1.061-6.199-3.184h-0.119l0.051,1.423
			c0.045,0.836,0.068,1.75,0.068,2.744v7.012h-1.677v-26.744h1.423l0.322,2.625h0.102c1.264-1.987,3.286-2.981,6.063-2.981
			c2.484,0,4.378,0.816,5.683,2.447c1.304,1.632,1.956,4.006,1.956,7.122c0,3.026-0.686,5.372-2.058,7.037
			C185.131,149.415,183.26,150.248,180.889,150.248z M180.855,148.757c1.886,0,3.345-0.7,4.378-2.1c1.033-1.4,1.55-3.359,1.55-5.877
			c0-5.409-1.954-8.113-5.86-8.113c-2.145,0-3.721,0.59-4.725,1.77c-1.005,1.18-1.507,3.102-1.507,5.767v0.542
			c0,2.879,0.483,4.934,1.448,6.165C177.103,148.142,178.675,148.757,180.855,148.757z"/>
		<path fill="#DD6B8B" d="M195.509,149.909h-1.677v-26.354h1.677V149.909z"/>
	</g>
	<g>
		<path fill="#424242" d="M929.385,208.106c0-1.03,0.268-1.821,0.804-2.371c0.536-0.551,1.313-0.826,2.329-0.826
			c1.03,0,1.814,0.286,2.35,0.857c0.536,0.572,0.805,1.352,0.805,2.339c0,1.002-0.272,1.796-0.815,2.382
			c-0.543,0.585-1.323,0.879-2.339,0.879c-1.016,0-1.793-0.29-2.329-0.868C929.653,209.919,929.385,209.122,929.385,208.106z"/>
		<path fill="#424242" d="M951.705,211.176c-3.543,0-6.235-1.034-8.077-3.102c-1.842-2.067-2.763-5.035-2.763-8.903
			c0-3.938,0.963-6.966,2.89-9.082c1.927-2.117,4.711-3.176,8.352-3.176c2.47,0,4.693,0.459,6.669,1.376l-1.503,4.001
			c-2.103-0.818-3.839-1.228-5.208-1.228c-4.051,0-6.076,2.689-6.076,8.066c0,2.625,0.505,4.598,1.514,5.917
			c1.009,1.32,2.488,1.98,4.435,1.98c2.216,0,4.312-0.551,6.288-1.651v4.34c-0.889,0.522-1.839,0.896-2.848,1.122
			C954.369,211.063,953.145,211.176,951.705,211.176z"/>
		<path fill="#424242" d="M978.598,210.752l-0.995-3.26h-0.169c-1.129,1.426-2.265,2.396-3.409,2.911
			c-1.143,0.515-2.611,0.773-4.404,0.773c-2.301,0-4.097-0.621-5.388-1.863c-1.291-1.242-1.937-2.999-1.937-5.272
			c0-2.413,0.896-4.234,2.688-5.462c1.792-1.228,4.524-1.898,8.194-2.011l4.044-0.127v-1.249c0-1.496-0.349-2.615-1.048-3.356
			c-0.698-0.741-1.782-1.112-3.25-1.112c-1.2,0-2.35,0.177-3.451,0.529c-1.101,0.353-2.159,0.769-3.176,1.249l-1.609-3.557
			c1.27-0.663,2.66-1.168,4.171-1.514c1.51-0.346,2.936-0.519,4.277-0.519c2.978,0,5.226,0.649,6.743,1.948
			c1.517,1.299,2.276,3.338,2.276,6.118v15.773H978.598z M971.188,207.365c1.807,0,3.257-0.504,4.351-1.514
			c1.094-1.009,1.641-2.424,1.641-4.245v-2.032l-3.006,0.127c-2.343,0.085-4.047,0.476-5.113,1.175
			c-1.066,0.699-1.599,1.768-1.599,3.207c0,1.045,0.31,1.853,0.932,2.424C969.014,207.079,969.946,207.365,971.188,207.365z"/>
	</g>
	<g>
		<path fill="#424242" d="M125.934,227.922c0-2.204,0.573-3.896,1.722-5.074c1.148-1.178,2.809-1.767,4.984-1.767
			c2.204,0,3.881,0.612,5.029,1.835c1.148,1.223,1.722,2.893,1.722,5.006c0,2.145-0.582,3.844-1.744,5.097
			c-1.163,1.253-2.832,1.88-5.006,1.88c-2.175,0-3.836-0.619-4.984-1.857C126.507,231.804,125.934,230.097,125.934,227.922z"/>
		<path fill="#424242" d="M188.83,233.586l-1.495-6.569h-0.544c-1.48,2.326-3.587,4.153-6.32,5.482
			c-2.734,1.329-5.852,1.994-9.356,1.994c-6.071,0-10.602-1.51-13.592-4.531c-2.99-3.02-4.485-7.596-4.485-13.728v-32.757h10.738
			v30.899c0,3.836,0.785,6.713,2.356,8.631c1.57,1.919,4.032,2.877,7.385,2.877c4.47,0,7.755-1.337,9.854-4.01
			c2.099-2.673,3.149-7.151,3.149-13.433v-24.964h10.693v50.11H188.83z"/>
		<path fill="#424242" d="M223.139,207.126l6.026-7.521l15.133-16.129h12.278l-20.162,21.521l21.43,28.589h-12.505l-16.084-21.974
			l-5.845,4.803v17.171h-10.556v-70.498h10.556v34.388l-0.544,9.65H223.139z"/>
	</g>
	<g>
		<path fill="#8A173A" d="M204.838,392.931c0-1.513,0.344-2.659,1.033-3.438c0.689-0.779,1.677-1.169,2.964-1.169
			c1.309,0,2.331,0.389,3.066,1.169c0.734,0.779,1.101,1.925,1.101,3.438c0,1.468-0.373,2.597-1.118,3.388
			c-0.745,0.79-1.762,1.185-3.049,1.185c-1.152,0-2.106-0.356-2.862-1.067C205.216,395.726,204.838,394.557,204.838,392.931z"/>
		<path fill="#8A173A" d="M249.865,396.522v-24.017c0-3.026-0.689-5.284-2.066-6.775c-1.378-1.491-3.535-2.236-6.47-2.236
			c-3.885,0-6.73,1.05-8.536,3.151c-1.807,2.1-2.71,5.567-2.71,10.399v19.478h-5.623v-37.126h4.573l0.915,5.081h0.271
			c1.152-1.829,2.766-3.246,4.844-4.251c2.078-1.005,4.392-1.508,6.944-1.508c4.471,0,7.836,1.079,10.095,3.235
			c2.258,2.157,3.387,5.606,3.387,10.349v24.22H249.865z"/>
		<path fill="#8A173A" d="M272.671,359.395v24.085c0,3.026,0.689,5.284,2.066,6.775c1.377,1.491,3.534,2.236,6.47,2.236
			c3.884,0,6.724-1.061,8.519-3.184c1.795-2.123,2.693-5.589,2.693-10.399v-19.512h5.623v37.126h-4.641l-0.813-4.98h-0.305
			c-1.152,1.829-2.75,3.23-4.793,4.201c-2.044,0.97-4.376,1.457-6.995,1.457c-4.517,0-7.899-1.073-10.146-3.218
			c-2.247-2.145-3.37-5.578-3.37-10.298v-24.288H272.671z"/>
	</g>
	<g>
		<path fill="#919395" d="M319.254,419.102c0-1.648,0.429-2.913,1.287-3.794c0.858-0.881,2.1-1.321,3.726-1.321
			c1.648,0,2.902,0.457,3.76,1.372c0.858,0.915,1.287,2.163,1.287,3.743c0,1.604-0.435,2.874-1.304,3.811
			c-0.87,0.937-2.117,1.406-3.743,1.406s-2.868-0.463-3.726-1.389C319.683,422.004,319.254,420.728,319.254,419.102z"/>
		<path fill="#919395" d="M352.493,424.014c-4.675,0-8.322-1.694-10.941-5.081c-2.62-3.387-3.929-8.141-3.929-14.261
			c0-6.143,1.326-10.925,3.98-14.346c2.653-3.421,6.329-5.132,11.026-5.132c4.923,0,8.672,1.818,11.246,5.454h0.406
			c-0.384-2.687-0.576-4.81-0.576-6.368v-13.651h7.994v52.708h-6.233l-1.389-4.912h-0.373
			C361.153,422.151,357.416,424.014,352.493,424.014z M354.627,417.578c3.274,0,5.657-0.92,7.147-2.761
			c1.491-1.84,2.258-4.827,2.304-8.96v-1.118c0-4.72-0.768-8.073-2.304-10.061c-1.536-1.987-3.941-2.981-7.215-2.981
			c-2.8,0-4.957,1.135-6.47,3.404c-1.513,2.27-2.27,5.505-2.27,9.705c0,4.155,0.734,7.323,2.202,9.502
			C349.49,416.489,351.691,417.578,354.627,417.578z"/>
		<path fill="#919395" d="M399.79,424.014c-5.826,0-10.382-1.699-13.668-5.098c-3.286-3.399-4.929-8.079-4.929-14.041
			c0-6.119,1.524-10.93,4.573-14.43c3.049-3.5,7.238-5.251,12.567-5.251c4.946,0,8.852,1.502,11.721,4.505
			c2.867,3.004,4.302,7.136,4.302,12.398v4.302H389.39c0.113,3.636,1.095,6.431,2.947,8.384c1.851,1.954,4.46,2.93,7.825,2.93
			c2.213,0,4.273-0.208,6.182-0.627c1.908-0.418,3.957-1.112,6.148-2.083v6.47c-1.943,0.926-3.907,1.581-5.894,1.965
			C404.611,423.822,402.342,424.014,399.79,424.014z M398.333,391.223c-2.529,0-4.556,0.802-6.08,2.405
			c-1.524,1.604-2.434,3.941-2.727,7.012h17.005c-0.045-3.093-0.791-5.437-2.236-7.029
			C402.85,392.019,400.862,391.223,398.333,391.223z"/>
	</g>
	<g>
		<path fill="#919395" d="M828.702,206.518c0-1.648,0.429-2.913,1.287-3.794c0.858-0.881,2.1-1.321,3.726-1.321
			c1.648,0,2.902,0.457,3.76,1.372c0.858,0.915,1.287,2.163,1.287,3.743c0,1.604-0.435,2.874-1.304,3.811
			c-0.87,0.937-2.117,1.406-3.743,1.406s-2.868-0.463-3.726-1.389C829.13,209.42,828.702,208.144,828.702,206.518z"/>
		<path fill="#919395" d="M882.265,210.752h-7.994v-23.035c0-2.891-0.582-5.047-1.745-6.47c-1.163-1.423-3.009-2.134-5.539-2.134
			c-3.365,0-5.826,0.994-7.385,2.981c-1.558,1.988-2.337,5.318-2.337,9.993v18.665h-7.96v-37.465h6.233l1.118,4.912h0.406
			c1.129-1.784,2.733-3.161,4.81-4.133c2.078-0.971,4.381-1.457,6.91-1.457c8.988,0,13.482,4.573,13.482,13.719V210.752z"/>
		<path fill="#919395" d="M901.649,210.752h-7.961v-52.709h7.961V210.752z"/>
	</g>
</g>
</svg>
